<svg width="122" height="25" viewBox="0 0 122 25" fill="none" xmlns="http://www.w3.org/2000/svg">
<path d="M15.5172 2.09702L10.7071 21.4168C10.5248 22.2683 10.0545 23.0315 9.37509 23.5785C8.69567 24.1255 7.84837 24.4231 6.97513 24.4214H1.73207C1.474 24.4218 1.2191 24.3647 0.986071 24.2541C0.753041 24.1435 0.547789 23.9823 0.385371 23.7824C0.222953 23.5824 0.107489 23.3487 0.0474467 23.0984C-0.0125952 22.8482 -0.0156916 22.5877 0.0383849 22.3361L4.86023 3.01337C5.04226 2.16333 5.51123 1.40127 6.18884 0.854447C6.86644 0.307621 7.71167 0.00912221 8.58339 0.00878906H13.8353C14.0925 0.0105287 14.3461 0.069368 14.5776 0.181033C14.8092 0.292698 15.0129 0.454386 15.174 0.654352C15.335 0.854318 15.4494 1.08754 15.5087 1.33709C15.5681 1.58663 15.571 1.84622 15.5172 2.09702Z" fill="#CAD0E2"/>
<path d="M28.9102 1.1102L26.919 10.4C26.619 11.8135 25.8405 13.0812 24.7142 13.9903C23.588 14.8994 22.1824 15.3946 20.7334 15.393H16.5095C16.3742 15.3921 16.2409 15.3611 16.1191 15.3023C15.9974 15.2436 15.8903 15.1585 15.8057 15.0533C15.721 14.9481 15.661 14.8254 15.6299 14.6941C15.5988 14.5629 15.5974 14.4264 15.6258 14.2945L17.6082 4.99295C17.9088 3.57967 18.6874 2.31235 19.8135 1.40334C20.9397 0.494333 22.3449 -0.00112099 23.7938 1.90449e-06H28.0295C28.1656 0.00151004 28.2996 0.0333225 28.4217 0.0931134C28.5439 0.152904 28.6511 0.239162 28.7355 0.345578C28.8199 0.451994 28.8794 0.575878 28.9097 0.708171C28.9399 0.840464 28.9401 0.977821 28.9102 1.1102Z" fill="#CAD0E2"/>
<path d="M39.2808 13.4049C39.2529 13.4357 39.2188 13.4602 39.1807 13.4769C39.1426 13.4936 39.1014 13.5021 39.0598 13.5018H35.372V17.6489C35.3727 17.6901 35.3647 17.7311 35.3484 17.769C35.3322 17.807 35.3081 17.8411 35.2778 17.8691C35.249 17.8986 35.2147 17.922 35.1767 17.9382C35.1388 17.9543 35.0981 17.9628 35.0569 17.9631H31.9847C31.8988 17.9625 31.8165 17.9289 31.7549 17.8691C31.7229 17.8419 31.6972 17.8081 31.6794 17.7701C31.6616 17.7321 31.6522 17.6908 31.6518 17.6489V9.807C31.6251 9.14617 31.7574 8.48856 32.0377 7.88913C32.2678 7.43886 32.6095 7.05469 33.0303 6.77306C33.4438 6.50887 33.9085 6.33472 34.3941 6.26201C34.8892 6.18542 35.3894 6.14615 35.8904 6.14453C36.5856 6.14453 37.2041 6.16509 37.752 6.20033C38.2999 6.23558 38.7329 6.2767 39.0598 6.31782C39.1423 6.32855 39.2195 6.36446 39.2808 6.42061C39.31 6.44766 39.3334 6.48035 39.3497 6.5167C39.3659 6.55305 39.3745 6.5923 39.375 6.63208V9.0052C39.3757 9.04645 39.3677 9.0874 39.3514 9.12535C39.3352 9.1633 39.3111 9.19742 39.2808 9.22547C39.252 9.2549 39.2176 9.27836 39.1797 9.29449C39.1418 9.31063 39.1011 9.31911 39.0598 9.31946H35.8904C35.7461 9.30478 35.6012 9.34117 35.481 9.42225C35.4374 9.47843 35.4053 9.54261 35.3866 9.61115C35.3679 9.67969 35.363 9.75124 35.372 9.82169V10.6705H39.0598C39.141 10.6711 39.219 10.7023 39.278 10.7579C39.337 10.8135 39.3727 10.8893 39.378 10.9701V13.1758C39.3796 13.2187 39.3717 13.2615 39.3549 13.3011C39.3381 13.3407 39.3128 13.3761 39.2808 13.4049Z" fill="#CAD0E2"/>
<path d="M50.7939 15.3315C50.555 15.9524 50.1772 16.5109 49.6894 16.9645C49.229 17.3737 48.6824 17.6748 48.0899 17.8456C46.8596 18.2019 45.5529 18.2019 44.3226 17.8456C43.7301 17.6748 43.1835 17.3737 42.7232 16.9645C42.2332 16.5115 41.8534 15.953 41.6127 15.3315C41.3105 14.5255 41.1685 13.6686 41.1944 12.8086V11.4428C41.1685 10.5828 41.3105 9.72591 41.6127 8.91994C41.8529 8.30388 42.2306 7.75045 42.7173 7.30164C43.1776 6.89237 43.7242 6.59128 44.3167 6.42053C45.5471 6.06425 46.8537 6.06425 48.084 6.42053C48.6786 6.59047 49.2273 6.89161 49.6894 7.30164C50.18 7.75404 50.5599 8.31272 50.7998 8.93463C51.102 9.7406 51.2441 10.5975 51.2181 11.4575V12.8233C51.2403 13.6788 51.0962 14.5305 50.7939 15.3315ZM47.4449 11.4428C47.4449 10.689 47.3467 10.1594 47.1503 9.85392C47.0357 9.71177 46.8907 9.59707 46.7258 9.51825C46.5608 9.43944 46.3803 9.39853 46.1974 9.39853C46.0145 9.39853 45.834 9.43944 45.6691 9.51825C45.5042 9.59707 45.3591 9.71177 45.2445 9.85392C45.0482 10.1594 44.95 10.689 44.95 11.4428V12.8086C44.95 13.5644 45.0482 14.093 45.2445 14.3946C45.3584 14.5377 45.5033 14.6533 45.6683 14.7328C45.8333 14.8122 46.0142 14.8535 46.1974 14.8535C46.3807 14.8535 46.5615 14.8122 46.7265 14.7328C46.8915 14.6533 47.0364 14.5377 47.1503 14.3946C47.3467 14.0911 47.4449 13.5624 47.4449 12.8086V11.4428Z" fill="#CAD0E2"/>
<path d="M63.2023 17.6815C63.2033 17.7194 63.1962 17.7571 63.1815 17.792C63.1668 17.827 63.1447 17.8584 63.1169 17.8842C63.0633 17.9342 62.9929 17.9625 62.9196 17.9635H59.5027C59.4654 17.9658 59.4281 17.9583 59.3945 17.9418C59.3609 17.9254 59.3322 17.9004 59.3113 17.8695C59.264 17.7991 59.2217 17.7255 59.1846 17.6492L57.323 13.9574H56.8193V17.6492C56.82 17.6905 56.812 17.7314 56.7958 17.7694C56.7795 17.8073 56.7554 17.8414 56.7251 17.8695C56.6969 17.8998 56.6627 17.9238 56.6247 17.94C56.5866 17.9562 56.5455 17.9642 56.5042 17.9635H53.432C53.3471 17.9621 53.266 17.9285 53.2052 17.8695C53.1732 17.8422 53.1475 17.8085 53.1297 17.7705C53.1119 17.7325 53.1025 17.6911 53.1021 17.6492V7.66332C53.0981 7.46603 53.1169 7.26894 53.158 7.07592C53.1864 6.93524 53.248 6.80333 53.3377 6.69116C53.4289 6.58695 53.5456 6.50803 53.6764 6.46208C53.8475 6.40256 54.0242 6.36026 54.2037 6.33578C54.3421 6.31522 54.5454 6.29467 54.8193 6.27411L55.7265 6.21243C56.0564 6.19187 56.3922 6.17425 56.7339 6.16544C57.0756 6.15663 57.3819 6.14781 57.6559 6.14781C58.3725 6.142 59.088 6.20792 59.7914 6.3446C60.37 6.45375 60.9215 6.6753 61.4144 6.99662C61.8593 7.29782 62.2137 7.71409 62.4394 8.2008C62.693 8.78702 62.8137 9.42184 62.7929 10.0599V10.3566C62.7978 10.7408 62.7421 11.1233 62.6279 11.4903C62.5284 11.8028 62.3846 12.0995 62.2008 12.3714C61.8935 12.8218 61.4688 13.1802 60.9726 13.4081L63.1552 17.52C63.1829 17.5696 63.1991 17.6248 63.2023 17.6815ZM59.0786 10.0599C59.0862 9.94462 59.0682 9.82905 59.0259 9.72144C58.9837 9.61383 58.9182 9.51681 58.8341 9.43729C58.5884 9.27202 58.2926 9.19724 57.9976 9.22582H56.8193V11.2054H57.9976C58.1473 11.2213 58.2987 11.2065 58.4425 11.1621C58.5864 11.1177 58.7196 11.0444 58.8341 10.9469C58.9874 10.7951 59.0752 10.5896 59.0786 10.3742V10.0599Z" fill="#CAD0E2"/>
<path d="M75.5096 17.7748C75.5131 17.8006 75.5105 17.8268 75.5021 17.8514C75.4937 17.876 75.4796 17.8983 75.461 17.9166C75.4425 17.9348 75.4199 17.9485 75.3951 17.9565C75.3703 17.9645 75.3439 17.9667 75.3182 17.9628H71.4124C71.3751 17.9645 71.338 17.9568 71.3045 17.9404C71.271 17.924 71.2423 17.8993 71.2209 17.8688C71.1747 17.7983 71.1334 17.7247 71.0972 17.6485L68.7408 12.823V17.6485C68.7393 17.7314 68.7056 17.8105 68.6468 17.8691C68.588 17.9277 68.5087 17.9613 68.4256 17.9628H65.3446C65.2587 17.9622 65.1764 17.9285 65.1148 17.8688C65.0829 17.8416 65.0571 17.8078 65.0393 17.7698C65.0216 17.7318 65.0121 17.6905 65.0117 17.6485V6.60238C65.0121 6.56045 65.0216 6.5191 65.0393 6.48111C65.0571 6.44311 65.0829 6.40936 65.1148 6.3821C65.1449 6.35201 65.1808 6.3282 65.2202 6.31207C65.2597 6.29593 65.3019 6.28779 65.3446 6.28812H68.4168C68.4581 6.28743 68.4992 6.29545 68.5373 6.31164C68.5753 6.32783 68.6095 6.35184 68.6377 6.3821C68.668 6.41016 68.6921 6.44427 68.7083 6.48223C68.7246 6.52018 68.7326 6.56112 68.7319 6.60238V11.5513L71.3328 6.60238C71.3695 6.52472 71.4139 6.45092 71.4654 6.3821C71.4879 6.35132 71.5177 6.3266 71.5521 6.31019C71.5866 6.29379 71.6246 6.2862 71.6627 6.28812H75.3123C75.3379 6.2841 75.3642 6.2862 75.3889 6.29422C75.4136 6.30225 75.4361 6.31598 75.4545 6.33431C75.4728 6.35263 75.4866 6.37502 75.4947 6.39966C75.5027 6.4243 75.5048 6.45049 75.5008 6.47609C75.5034 6.52014 75.4931 6.56399 75.4713 6.60238L72.3491 12.1005L75.4861 17.6485C75.5058 17.6875 75.514 17.7314 75.5096 17.7748Z" fill="#CAD0E2"/>
<path d="M86.9985 17.9631H83.7201C83.6802 17.9625 83.6409 17.9539 83.6044 17.9378C83.5679 17.9216 83.5352 17.8982 83.508 17.8691C83.4497 17.8075 83.409 17.7314 83.3902 17.6488L83.0957 15.8866H80.7009L80.4064 17.6488C80.3865 17.731 80.3459 17.8068 80.2886 17.8691C80.2614 17.8982 80.2287 17.9216 80.1922 17.9378C80.1557 17.9539 80.1164 17.9625 80.0765 17.9631H76.8187C76.7865 17.9679 76.7536 17.9653 76.7227 17.9552C76.6917 17.9452 76.6635 17.9281 76.6403 17.9053C76.6171 17.8824 76.5996 17.8545 76.5892 17.8238C76.5787 17.793 76.5756 17.7603 76.5801 17.7281V17.6488L78.4564 8.15632C78.5238 7.802 78.6631 7.46516 78.8659 7.16654C79.0531 6.90632 79.2993 6.69397 79.5846 6.54683C79.9037 6.38527 80.2468 6.27617 80.6008 6.22375C81.4682 6.09859 82.3491 6.09859 83.2164 6.22375C83.573 6.27712 83.9189 6.38615 84.2415 6.54683C84.5283 6.69403 84.7765 6.90629 84.9661 7.16654C85.1689 7.46331 85.3027 7.80144 85.3578 8.15632L87.2341 17.6488V17.7281C87.2385 17.76 87.2355 17.7924 87.2252 17.8229C87.2149 17.8534 87.1977 17.8812 87.1748 17.9039C87.152 17.9267 87.1242 17.9439 87.0936 17.9541C87.063 17.9644 87.0305 17.9674 86.9985 17.9631ZM82.05 9.35756C82.05 9.29588 82.0294 9.24595 82.0176 9.20777C82.0058 9.16959 81.9705 9.15491 81.9086 9.15491C81.8468 9.15491 81.8085 9.17253 81.7967 9.20777C81.7849 9.24302 81.7761 9.29588 81.7672 9.35756L81.1781 13.0024H82.6273L82.05 9.35756Z" fill="#CAD0E2"/>
<path d="M97.6284 17.5813C97.5425 17.6289 97.4487 17.6607 97.3515 17.6753C96.8685 17.7771 96.3059 17.875 95.6637 17.969C94.975 18.0674 94.28 18.1155 93.5842 18.1129C93.2254 18.1112 92.8671 18.0847 92.512 18.0336C92.1293 17.9813 91.7544 17.8827 91.3956 17.7399C91.0173 17.5886 90.6592 17.3913 90.3294 17.1525C89.971 16.8885 89.6645 16.561 89.4251 16.1862C89.1429 15.7465 88.9331 15.2646 88.8036 14.7588C88.6379 14.1172 88.5586 13.4565 88.5679 12.794V11.4576C88.5286 10.5068 88.7037 9.55937 89.0805 8.68507C89.3493 8.08346 89.7585 7.55469 90.2739 7.14289C90.7894 6.73108 91.3962 6.44819 92.0437 6.31783C92.6004 6.19853 93.1679 6.13555 93.7373 6.12986C94.4683 6.12085 95.1987 6.17589 95.92 6.29433C96.4003 6.37813 96.8761 6.48596 97.3456 6.6174C97.4421 6.63929 97.5352 6.67385 97.6225 6.7202C97.6579 6.74663 97.6755 6.82887 97.6755 6.96397V9.27248C97.6755 9.46338 97.6019 9.56618 97.4546 9.56618H97.4045L96.9185 9.51919C96.7065 9.49569 96.4708 9.47807 96.2087 9.46338C95.9465 9.4487 95.6755 9.43401 95.3957 9.42227C95.1159 9.41052 94.8567 9.42227 94.6151 9.42227C94.2541 9.4169 93.8934 9.44343 93.5371 9.50156C93.282 9.5379 93.0406 9.63904 92.836 9.79527C92.6447 9.95942 92.5097 10.1792 92.4501 10.4238C92.3625 10.7672 92.3228 11.121 92.3323 11.4752V12.8233C92.3201 13.2284 92.3617 13.6333 92.456 14.0275C92.5132 14.2595 92.6208 14.476 92.7712 14.6619C92.8766 14.7878 93.0222 14.8739 93.1836 14.9057C93.313 14.928 93.4441 14.9388 93.5753 14.938H93.8375C93.925 14.9342 94.0119 14.9214 94.0967 14.8998V12.0715C94.096 12.0302 94.1041 11.9893 94.1203 11.9513C94.1365 11.9134 94.1606 11.8792 94.191 11.8512C94.2191 11.8209 94.2533 11.7969 94.2914 11.7807C94.3294 11.7645 94.3705 11.7565 94.4119 11.7572H97.3574C97.4405 11.7587 97.5198 11.7923 97.5786 11.8509C97.6374 11.9095 97.6711 11.9886 97.6726 12.0715V17.3346C97.6814 17.4697 97.6638 17.5549 97.6284 17.5813Z" fill="#CAD0E2"/>
<path d="M109.913 17.6815C109.914 17.7194 109.907 17.7571 109.892 17.792C109.878 17.8269 109.856 17.8583 109.828 17.8842C109.774 17.9342 109.704 17.9625 109.63 17.9635H106.211C106.174 17.9655 106.137 17.958 106.104 17.9415C106.071 17.925 106.043 17.9002 106.022 17.8695C105.974 17.7997 105.931 17.726 105.895 17.6492L104.031 13.9574H103.53V17.6492C103.529 17.7321 103.495 17.8111 103.436 17.8697C103.377 17.9284 103.298 17.962 103.215 17.9635H100.143C100.057 17.9629 99.9746 17.9292 99.913 17.8695C99.8816 17.842 99.8564 17.8081 99.8392 17.7701C99.8219 17.7321 99.8129 17.6909 99.8129 17.6492V7.6633C99.8096 7.46618 99.8274 7.26927 99.8659 7.0759C99.8952 6.93499 99.9578 6.80309 100.049 6.69115C100.139 6.58631 100.256 6.50727 100.387 6.46206C100.558 6.40255 100.735 6.36024 100.915 6.33577C101.05 6.31521 101.256 6.29465 101.53 6.27409L102.434 6.21241C102.767 6.19185 103.103 6.17423 103.445 6.16542C103.786 6.15661 104.093 6.1478 104.367 6.1478C105.083 6.14214 105.799 6.20806 106.502 6.34458C107.081 6.45425 107.632 6.67575 108.125 6.9966C108.569 7.29944 108.923 7.71526 109.15 8.20078C109.404 8.78701 109.525 9.42182 109.504 10.0599V10.3566C109.509 10.7407 109.453 11.1233 109.339 11.4902C109.238 11.8029 109.093 12.0996 108.909 12.3714C108.603 12.8225 108.179 13.1812 107.683 13.4081L109.866 17.52C109.894 17.5696 109.91 17.6248 109.913 17.6815ZM105.789 10.0599C105.797 9.94482 105.78 9.82939 105.738 9.72179C105.696 9.6142 105.631 9.51706 105.548 9.43727C105.302 9.27245 105.006 9.19772 104.711 9.2258H103.533V11.2054H104.711C104.861 11.2211 105.012 11.2063 105.156 11.1618C105.3 11.1174 105.433 11.0443 105.548 10.9469C105.7 10.7948 105.787 10.5892 105.789 10.3742V10.0599Z" fill="#CAD0E2"/>
<path d="M121.093 15.3315C120.851 15.9525 120.472 16.5108 119.982 16.9645C119.522 17.3737 118.975 17.6748 118.383 17.8456C117.153 18.2019 115.846 18.2019 114.616 17.8456C114.023 17.6748 113.476 17.3737 113.016 16.9645C112.526 16.5115 112.146 15.953 111.906 15.3315C111.603 14.5255 111.461 13.6686 111.487 12.8086V11.4428C111.461 10.5828 111.603 9.72591 111.906 8.91994C112.148 8.30331 112.527 7.74984 113.016 7.30164C113.476 6.89237 114.023 6.59128 114.616 6.42053C115.846 6.06425 117.153 6.06425 118.383 6.42053C118.975 6.59128 119.522 6.89237 119.982 7.30164C120.472 7.75486 120.852 8.3133 121.093 8.93463C121.394 9.74096 121.536 10.5976 121.511 11.4575V12.8233C121.534 13.6783 121.392 14.5297 121.093 15.3315ZM117.744 11.4428C117.744 10.689 117.646 10.1594 117.449 9.85392C117.335 9.71177 117.19 9.59707 117.025 9.51825C116.86 9.43944 116.679 9.39853 116.496 9.39853C116.313 9.39853 116.133 9.43944 115.968 9.51825C115.803 9.59707 115.658 9.71177 115.543 9.85392C115.347 10.1594 115.249 10.689 115.249 11.4428V12.8086C115.249 13.5644 115.347 14.093 115.543 14.3946C115.657 14.5377 115.802 14.6533 115.967 14.7328C116.132 14.8122 116.313 14.8535 116.496 14.8535C116.68 14.8535 116.86 14.8122 117.025 14.7328C117.19 14.6533 117.335 14.5377 117.449 14.3946C117.646 14.0911 117.744 13.5624 117.744 12.8086V11.4428Z" fill="#CAD0E2"/>
</svg>
