<svg width="98" height="47" viewBox="0 0 98 47" fill="none" xmlns="http://www.w3.org/2000/svg">
<path d="M80.0764 28.3978C79.6926 28.3978 79.3804 28.1084 79.3804 27.7508C79.3804 27.7427 79.384 27.735 79.384 27.7264V16.8052V16.756L79.3873 16.7101C79.4235 16.3886 79.7154 16.1335 80.0734 16.1335C80.4308 16.1335 80.7276 16.3886 80.7623 16.7101L80.7665 16.756C80.7665 16.7645 80.7665 16.7955 80.7665 16.8052V27.7264C80.7665 27.735 80.7687 27.7427 80.7687 27.7508C80.7687 28.1084 80.457 28.3978 80.0764 28.3978ZM81.3706 14.1172H78.7786C76.587 14.1172 76.457 15.8874 76.457 17.0291V27.4992C76.457 28.6426 76.587 30.4127 78.7786 30.4127H81.3706C83.5622 30.4127 83.6964 28.6426 83.6964 27.4992V17.0291C83.6964 15.8874 83.5622 14.1172 81.3706 14.1172Z" fill="#CAD0E2"/>
<path d="M32.5859 14.1172H38.5566V16.1408H35.7152V30.4127H32.5859V14.1172Z" fill="#CAD0E2"/>
<path d="M39.0156 30.4127H42.0748L42.3686 26.081H43.8448L44.1339 30.4127H47.1978L45.5641 14.1172H40.648L39.0156 30.4127ZM42.4787 24.2902L43.0178 16.1382H43.1936L43.73 24.2902H42.4787Z" fill="#CAD0E2"/>
<path d="M51.6825 24.7069V27.7735C51.6825 28.1927 51.9913 28.312 52.173 28.312C52.4619 28.312 52.6639 28.0535 52.6639 27.7735V23.9851C52.6639 23.4732 52.5763 22.9166 51.409 22.9166H50.1408V21.1232H51.4544C52.3487 21.1232 52.6639 20.9107 52.6639 19.9156V16.6732C52.6639 16.395 52.4619 16.1408 52.173 16.1408C51.9913 16.1408 51.6825 16.2564 51.6825 16.6732V19.3313H48.5508V17.0291C48.5508 15.8874 48.6871 14.1172 50.8753 14.1172H53.4707C55.6622 14.1172 55.7952 15.8874 55.7952 17.0291V19.6374C55.7952 21.4032 54.6089 21.8907 53.6688 21.8453V22.0095C55.7691 21.9593 55.7952 23.6373 55.7952 24.2207V27.4992C55.7952 28.6426 55.6622 30.4127 53.4707 30.4127H50.8753C48.6871 30.4127 48.5508 28.6426 48.5508 27.4992V24.7069H51.6825Z" fill="#CAD0E2"/>
<path d="M57.8555 14.1172H65.0977V30.4127H62.1778V16.1408H60.7732V30.4127H57.8555V14.1172Z" fill="#CAD0E2"/>
<path d="M67.3633 30.4127H70.4911V24.8728H72.2797C74.4713 24.8728 74.8202 23.1044 74.8202 21.9593V17.0291C74.8202 15.8874 74.4713 14.1172 72.2797 14.1172H67.3633V30.4127ZM70.4911 23.0765V16.1408H71.3134C71.6529 16.1408 71.8989 16.4435 71.8989 16.9528V22.2646C71.8989 22.7773 71.6529 23.0765 71.3134 23.0765H70.4911Z" fill="#CAD0E2"/>
<path d="M93.6794 14.1172H97.7508V30.4127H94.6193V20.1934H94.5077L92.8954 30.4127H90.395L88.7848 20.1934H88.6747V30.4127H85.543V14.1172H89.608L91.64 25.5691L93.6794 14.1172Z" fill="#CAD0E2"/>
<path d="M25.9098 15.773C25.8733 17.4257 25.6754 19.1689 25.4245 20.2094C25.5158 18.4156 25.298 15.8823 24.8848 13.9037C24.4727 11.9248 23.3014 8.62586 22.3682 7.09531C21.5086 8.54957 20.4458 11.406 19.8897 13.8875C19.3303 16.3672 19.314 19.3685 19.314 20.2697C19.1647 19.5049 18.7939 16.8048 18.9008 14.0859C18.989 11.8421 19.5125 9.53946 19.7994 8.47747C20.895 4.93807 22.1371 2.67612 22.3682 2.31509C22.6013 2.67612 24.1662 5.46141 24.9761 8.38833C25.7821 11.3182 25.9424 14.1216 25.9098 15.773ZM22.3874 28.417C21.9026 27.5035 21.1446 25.7607 21.0739 23.0709C21.0547 20.4645 22.0977 18.2338 22.4033 17.7668C22.6769 18.2338 23.5712 20.1768 23.6788 22.8352C23.753 25.4366 22.8917 27.4838 22.3874 28.417ZM26.1954 8.42566C25.2075 4.09562 22.7258 0.573669 22.3874 0C21.8468 0.807817 19.8701 3.91518 18.8656 7.36504C17.7689 11.211 17.6072 14.6223 17.9845 17.9847C18.3623 21.3429 19.783 24.7914 19.783 24.7914C20.5371 26.6041 21.6681 28.5422 22.4033 29.4953C23.4803 28.0934 25.9643 23.9134 26.7351 18.4516C27.1647 15.4153 27.1809 12.754 26.1954 8.42566Z" fill="#CAD0E2"/>
<path d="M16.3191 30.4091V35.5306C16.3256 35.5241 16.3319 35.5172 16.3418 35.5099C18.1312 33.726 21.035 33.726 22.8262 35.5099C24.6187 37.2913 24.6187 40.1886 22.8262 41.9707C22.8197 41.978 22.8128 41.9844 22.8043 41.9922V41.9942C22.7932 42.0021 22.785 42.0098 22.7782 42.0183C20.9892 43.7829 18.6543 44.6691 16.3191 44.6691C13.9779 44.6691 11.6303 43.7739 9.84205 41.9978C6.691 38.8562 6.3132 33.9979 8.71879 30.4493C9.04168 29.9696 9.41542 29.5143 9.84205 29.0922C11.6303 27.3095 13.9779 26.4216 16.3191 26.4216V14.2041C7.31134 14.2041 0 21.4807 0 30.4493C0 39.4254 7.31134 46.7017 16.3191 46.7017C21.0216 46.7017 25.2523 44.7192 28.228 41.5557V30.4091H16.3191Z" fill="#CAD0E2"/>
<path d="M94.8288 42.853C94.8288 44.4017 94.1238 44.6774 92.3288 44.6774H90.6768V37.603H92.3288V40.3331H92.6047C94.2284 40.3331 94.8288 40.7116 94.8288 42.126V42.853ZM81.0445 38.9393H79.793V44.6825H78.2214V38.9393H76.8813V37.5967H81.0445V38.9393ZM68.3348 42.1542C68.3348 43.5909 67.6046 43.9772 65.9776 43.9772V44.6774H64.3717V43.9772C62.7396 43.9772 62.0009 43.5909 62.0009 42.1542V39.9438C62.0009 38.5004 62.71 38.133 64.3717 38.133V37.603H65.9776V38.133C67.6295 38.133 68.3348 38.5004 68.3348 39.9438V42.1542ZM53.3602 38.9393H51.1008V40.331H53.123V41.6724H51.1008V43.3397H53.3602V44.6825H49.3963V37.5967H53.3602V38.9393ZM39.6607 44.6774H38.0075V41.5807H37.1591V44.6774H35.5073V37.603H37.1591V40.3331H38.0075V37.603H39.6607V44.6774ZM97.7536 35.8389H32.5859V46.7022H97.7536V35.8389ZM63.6073 39.8993V42.1641C63.6073 42.5795 63.7402 42.6743 64.1047 42.6743H64.3717V39.3779H64.1047C63.7402 39.3779 63.6073 39.4838 63.6073 39.8993ZM92.6962 41.5807H92.3288V43.4276H92.6962C93.067 43.4276 93.178 43.3338 93.178 42.9294V42.0779C93.178 41.6724 93.067 41.5807 92.6962 41.5807ZM66.2319 39.3779H65.9776V42.6743H66.2319C66.5993 42.6743 66.7322 42.5706 66.7322 42.1542V39.8796C66.7322 39.4632 66.5993 39.3779 66.2319 39.3779Z" fill="#CAD0E2"/>
</svg>
