<svg width="112" height="21" viewBox="0 0 112 21" fill="none" xmlns="http://www.w3.org/2000/svg">
<path fill-rule="evenodd" clip-rule="evenodd" d="M12.9085 0H4.00854L3.9399 1.89998L3.71706 5.20522C3.61499 6.25667 3.45624 7.30185 3.24151 8.33619C3.02465 9.37401 2.74257 10.3971 2.39692 11.3994C2.0475 12.4174 1.61073 13.4349 1.0964 14.4627H0V20.8699H2.60105V16.6688H12.006V20.8659H14.6071V14.4627H12.9134V0H12.9085ZM6.31855 2.21954H10.1328V14.4627H3.59093L4.52688 12.4464L5.12856 10.7402L5.47798 9.48028C5.59386 9.02479 5.72088 8.36605 5.85682 7.4925C5.99275 6.61895 6.10908 5.50472 6.20624 4.14849L6.32212 2.21954H6.31855ZM27.3654 13.0088C27.3654 12.437 27.2295 11.9329 26.9866 11.4966C26.7437 11.0603 26.4138 10.7019 25.9971 10.4011C25.58 10.1105 25.1138 9.8872 24.5896 9.73254C25.0264 9.60641 25.4052 9.41254 25.7351 9.15092C26.0583 8.88759 26.3199 8.55673 26.5016 8.18154C26.6915 7.78891 26.7879 7.35767 26.7833 6.92157C26.7836 6.5119 26.7011 6.10639 26.5409 5.72935C26.377 5.36664 26.1466 5.03785 25.8616 4.75997C25.5572 4.46848 25.2019 4.23524 24.8134 4.07183C24.5905 3.97511 24.3574 3.89355 24.1145 3.82937C23.8623 3.76163 23.5806 3.71349 23.2606 3.68408L22.1152 3.63951H17.2763V16.6688H22.1486L23.323 16.63C23.6394 16.611 23.954 16.5688 24.2643 16.5039C24.5478 16.4424 24.8267 16.3614 25.0991 16.2615C25.5893 16.0676 26.0016 15.806 26.3416 15.486C26.6709 15.1709 26.9318 14.7915 27.1082 14.3713C27.2766 13.9353 27.3622 13.4717 27.3605 13.0044L27.3654 13.0088ZM23.9585 7.34765C23.9585 7.78443 23.8516 8.10399 23.6479 8.32683C23.4442 8.54076 23.1821 8.68561 22.8519 8.75336C22.5216 8.8211 22.1727 8.85007 21.7845 8.85007H19.9304V5.80601H21.7648C22.0269 5.80601 22.289 5.82562 22.5412 5.86395C22.7935 5.90852 23.0315 5.97983 23.2543 6.0966C23.4683 6.20356 23.6332 6.35822 23.7687 6.5619C23.8948 6.76558 23.963 7.0272 23.963 7.34721L23.9585 7.34765ZM24.3614 12.7467C24.3614 13.1149 24.2839 13.4153 24.1475 13.6484C24.0018 13.881 23.8177 14.0651 23.5846 14.1912C23.3366 14.3262 23.0674 14.418 22.7886 14.4627C22.4976 14.5072 22.2061 14.5402 21.8959 14.5304H19.9643V10.9916H21.915C22.2046 10.9929 22.4936 11.0188 22.7788 11.0692C23.0596 11.1182 23.3225 11.2051 23.565 11.3366C23.7981 11.4627 23.992 11.6468 24.1279 11.8794C24.2928 12.0925 24.361 12.3933 24.361 12.7423L24.3614 12.7467ZM37.8623 16.6688V14.3958H32.194V10.935H36.445V8.78322H32.1789V5.77838H36.9745L37.6733 3.62658H29.4668V16.6688H37.8623ZM50.2659 7.6534C50.2659 7.16314 50.1785 6.69382 50.0136 6.27176C49.8487 5.83498 49.6156 5.44723 49.3005 5.11296C48.9854 4.77869 48.6213 4.49256 48.1845 4.26971C47.9858 4.17101 47.7816 4.08366 47.573 4.00809C47.33 3.92166 47.0799 3.85679 46.8256 3.81422C46.5345 3.75628 46.1851 3.7175 45.7582 3.68809L44.1951 3.64352H40.429V16.6688H43.1567V11.8999H44.9327C45.3989 11.8999 45.8259 11.8803 46.194 11.8322C46.553 11.7867 46.9071 11.7088 47.2521 11.5995C47.6115 11.4758 47.959 11.3201 48.2906 11.1342C48.6596 10.9306 48.9894 10.6689 49.2902 10.3298C49.5911 9.99996 49.8242 9.60329 50.0034 9.15671C50.1784 8.67536 50.2671 8.16691 50.2654 7.65473L50.2659 7.6534ZM47.2766 7.73095C47.2766 8.24483 47.1893 8.65174 47.0092 8.95214C46.8345 9.25253 46.5724 9.45577 46.2328 9.58234C45.8834 9.69822 45.4662 9.76641 44.9613 9.76062H43.1754V5.73782H44.7665C45.2327 5.73782 45.6597 5.78239 46.038 5.90272C46.4164 6.02306 46.7177 6.23253 46.9312 6.51332C47.1639 6.81371 47.2708 7.21127 47.2806 7.73451L47.2766 7.73095ZM62.5437 16.6688V3.63505H59.768L56.342 10.0909L55.5165 11.7578L54.8761 13.3186L54.9732 12.0586L55.012 10.9827V3.63505H52.411V16.6688H55.0851L58.754 9.84976L59.2296 8.91916L59.6566 7.95958L60.0546 6.9033L59.9672 8.50778L59.9382 10.0588V16.655H62.5393L62.5437 16.6688ZM75.705 3.63059H67.6977C67.5328 7.46933 67.2315 11.2296 65.4069 14.7394H64.3194V20.1871H66.6392V16.6688H74.7338V20.1875H77.0536V14.7434H75.7045V3.63505L75.705 3.63059ZM69.911 5.75342H72.9774V14.7385H67.7463C69.2505 11.9173 69.6485 8.89331 69.9106 5.75342H69.911ZM90.4195 10.1154C90.4195 9.13621 90.2929 8.24438 90.0317 7.42074C89.7696 6.60647 89.381 5.89871 88.8667 5.30817C88.3523 4.71763 87.7021 4.25189 86.9257 3.93188C86.1493 3.60207 85.2463 3.44162 84.2177 3.44162C82.9368 3.44162 81.8301 3.72241 80.908 4.2559C79.9854 4.79875 79.2776 5.56444 78.782 6.5726C78.2864 7.58075 78.0346 8.78322 78.0346 10.1978C78.0346 11.1864 78.1804 12.0978 78.4522 12.9166C78.7241 13.7353 79.1315 14.4386 79.6748 15.0202C80.2185 15.6116 80.8692 16.0676 81.655 16.3871C82.4407 16.7067 83.3245 16.8716 84.3291 16.8716C85.3872 16.8716 86.299 16.7067 87.0567 16.3814C87.8233 16.0515 88.4544 15.5862 88.9491 14.9854C89.4438 14.3847 89.8129 13.6769 90.0455 12.8528C90.2978 12.0283 90.4146 11.1177 90.4146 10.1288L90.4195 10.1154ZM87.3812 10.2125L87.333 11.5211C87.2963 11.9509 87.2182 12.3761 87.1 12.7909C86.9841 13.1884 86.8089 13.5566 86.5856 13.8668C86.3528 14.1905 86.0423 14.4505 85.6827 14.6227C85.3038 14.8067 84.8483 14.9034 84.2948 14.9034C83.5817 14.8936 83.0041 14.7581 82.5771 14.4867C82.1403 14.2193 81.8194 13.8565 81.6064 13.401C81.3933 12.9455 81.257 12.4316 81.1794 11.8696C81.1112 11.3081 81.0822 10.726 81.0822 10.1247L81.1402 8.82601C81.1847 8.38923 81.2663 7.96315 81.3924 7.56604C81.5083 7.16848 81.6835 6.80034 81.9166 6.49014C82.1502 6.17114 82.4561 5.91208 82.8093 5.73425C83.1783 5.55018 83.6249 5.45347 84.1686 5.45347C84.7414 5.45347 85.2169 5.55063 85.6051 5.73425C85.9933 5.91788 86.304 6.16078 86.5411 6.48078C86.7828 6.80549 86.9668 7.16946 87.0848 7.55668C87.2077 7.9775 87.2891 8.40936 87.3277 8.84606L87.3856 10.213L87.3812 10.2125ZM111.423 0.600791H103.706V14.3169C103.619 14.3365 103.541 14.3615 103.464 14.3945C102.998 14.5496 102.6 14.7724 102.269 15.063C101.939 15.3536 101.678 15.7226 101.493 16.1487C101.309 16.5748 101.226 17.0695 101.226 17.6222C101.226 18.2038 101.323 18.698 101.507 19.1241C101.692 19.5408 101.954 19.8898 102.294 20.1613C102.633 20.4327 103.041 20.6364 103.497 20.7629C103.963 20.8984 104.477 20.9568 105.04 20.9568C105.593 20.9568 106.098 20.8891 106.565 20.7429C107.021 20.5976 107.428 20.3841 107.758 20.1033C108.098 19.8225 108.351 19.4637 108.535 19.0372C108.719 18.6107 108.816 18.1164 108.816 17.554C108.816 16.8462 108.661 16.2454 108.36 15.7413C108.059 15.2373 107.622 14.85 107.05 14.5825C106.845 14.4854 106.622 14.3985 106.38 14.3401V6.77583H110.194V4.65301H106.38V2.69464H110.756L111.423 0.600791ZM104.978 18.8148C104.803 18.8148 104.619 18.805 104.434 18.7952C104.257 18.7787 104.081 18.7461 103.91 18.698C103.751 18.6544 103.601 18.5857 103.463 18.4944C103.328 18.407 103.23 18.2813 103.153 18.1356C103.075 17.9898 103.037 17.7969 103.037 17.5829C103.037 17.2919 103.095 17.0691 103.212 16.8948C103.321 16.7267 103.476 16.5925 103.657 16.507C103.858 16.4172 104.07 16.3583 104.288 16.3323C104.527 16.3047 104.767 16.2917 105.006 16.2935L105.54 16.3132C105.725 16.3328 105.9 16.3577 106.065 16.4103C106.229 16.4629 106.385 16.5262 106.511 16.6234C106.639 16.7192 106.745 16.8415 106.822 16.9821C106.899 17.1274 106.938 17.312 106.938 17.525C106.938 17.7576 106.899 17.9417 106.822 18.0968C106.745 18.2519 106.647 18.3776 106.511 18.4748C106.385 18.5719 106.229 18.6397 106.065 18.6887C105.9 18.7377 105.715 18.7662 105.531 18.7859C105.356 18.805 105.172 18.8148 104.978 18.8148ZM91.0011 14.3512H93.4078V0.600791H101.124L100.473 2.69464H96.0909V4.65256H99.906V6.77539H96.0909V14.3512H98.5564V20.3707H91.0011V14.3512ZM92.8939 15.8532H96.66V18.8581H92.8939V15.8488V15.8532Z" fill="#CAD0E2"/>
</svg>
