<svg width="141" height="11" viewBox="0 0 141 11" fill="none" xmlns="http://www.w3.org/2000/svg">
<path fill-rule="evenodd" clip-rule="evenodd" d="M2.4509 0.271484V10.0324H0V0.271484H2.4509ZM5.55859 10.0324V0.271484H8.00949L12.5361 6.23935V0.271484H14.9745V10.0324H12.5361L8.00949 4.06451V10.0324H5.55859ZM21.6555 2.42043V10.0324H19.2046V2.42043H17.1914V0.271484H23.6688V2.42043H21.6555ZM31.2551 2.42043H28.3415V4.05156H31.0925V6.20051H28.3415V7.88342H31.2551V10.0324H25.8906V0.271484H31.2551V2.42043ZM38.737 4.56975H43.6013C43.6013 5.08757 43.5804 5.55792 43.5387 5.98081C43.4971 6.4037 43.4137 6.79637 43.2887 7.15885C43.1136 7.66804 42.876 8.11897 42.5759 8.51165C42.2758 8.90433 41.9236 9.23228 41.5193 9.49551C41.1149 9.75873 40.671 9.95939 40.1875 10.0975C39.704 10.2356 39.1955 10.3046 38.662 10.3046C37.9284 10.3046 37.2594 10.1795 36.655 9.92918C36.0506 9.6789 35.5317 9.32722 35.0982 8.87412C34.6647 8.42103 34.327 7.87732 34.0853 7.24299C33.8435 6.60866 33.7227 5.90746 33.7227 5.13935C33.7227 4.37988 33.8414 3.68299 34.079 3.04866C34.3166 2.41433 34.6542 1.87278 35.0919 1.424C35.5296 0.975224 36.0568 0.625699 36.6737 0.375419C37.2906 0.125138 37.9784 0 38.737 0C39.7207 0 40.5835 0.220071 41.3254 0.660219C42.0674 1.10037 42.6551 1.78216 43.0886 2.7056L40.7627 3.70241C40.546 3.16732 40.2646 2.78328 39.9187 2.55026C39.5727 2.31724 39.1788 2.20073 38.737 2.20073C38.3702 2.20073 38.0367 2.27193 37.7366 2.41433C37.4365 2.55673 37.1802 2.75954 36.9676 3.02277C36.755 3.28599 36.5883 3.60316 36.4674 3.97426C36.3465 4.34537 36.2861 4.75962 36.2861 5.21703C36.2861 5.63128 36.3382 6.01533 36.4424 6.36917C36.5466 6.72302 36.7029 7.02939 36.9113 7.2883C37.1197 7.54721 37.3782 7.74787 37.6866 7.89027C37.9951 8.03267 38.3535 8.10387 38.762 8.10387C39.0038 8.10387 39.2372 8.07582 39.4623 8.01972C39.6873 7.96362 39.8895 7.87301 40.0687 7.74787C40.248 7.62273 40.3959 7.46091 40.5126 7.26241C40.6293 7.06391 40.7085 6.82227 40.7502 6.53747H38.737V4.56975ZM48.7344 4.63442H49.197C49.6806 4.63442 50.0515 4.53086 50.31 4.32373C50.5684 4.1166 50.6976 3.81886 50.6976 3.43049C50.6976 3.04213 50.5684 2.74438 50.31 2.53725C50.0515 2.33013 49.6806 2.22656 49.197 2.22656H48.7344V4.63442ZM54.1255 10.0324H51.0744L48.7361 6.27819V10.0324H46.2852V0.271484H50.099C50.6242 0.271484 51.0827 0.351314 51.4746 0.510976C51.8664 0.670637 52.1894 0.888551 52.4437 1.16472C52.6979 1.44089 52.8897 1.76021 53.0189 2.12269C53.1481 2.48516 53.2127 2.87352 53.2127 3.28778C53.2127 4.02999 53.0397 4.63195 52.6937 5.09367C52.3478 5.5554 51.8372 5.86824 51.1619 6.03222L54.1255 10.0324ZM61.4078 6.40752L60.3074 3.1582L59.207 6.40752H61.4078ZM62.0563 8.33652H58.5551L57.9924 10.0324H55.3789L58.9677 0.271484H61.6437L65.2325 10.0324H62.619L62.0563 8.33652ZM78.0003 2.77033C77.7336 2.54594 77.4668 2.37981 77.2001 2.27193C76.9333 2.16405 76.6749 2.11011 76.4248 2.11011C76.108 2.11011 75.8496 2.18778 75.6495 2.34313C75.4494 2.49848 75.3494 2.70129 75.3494 2.95157C75.3494 3.12418 75.3994 3.26657 75.4994 3.37877C75.5995 3.49096 75.7308 3.58805 75.8933 3.67004C76.0559 3.75203 76.2393 3.82323 76.4435 3.88364C76.6478 3.94406 76.8499 4.00878 77.05 4.07782C77.8503 4.354 78.4359 4.72294 78.8069 5.18466C79.1779 5.64639 79.3633 6.24835 79.3633 6.99056C79.3633 7.49112 79.2821 7.9442 79.1195 8.34983C78.9569 8.75546 78.7194 9.10283 78.4067 9.39194C78.0941 9.68106 77.7107 9.90545 77.2563 10.0651C76.802 10.2248 76.2872 10.3046 75.712 10.3046C74.5199 10.3046 73.4153 9.93781 72.3983 9.20423L73.4487 7.15885C73.8155 7.49543 74.1781 7.74571 74.5366 7.90969C74.8951 8.07366 75.2493 8.15565 75.5995 8.15565C75.9996 8.15565 76.2976 8.06072 76.4935 7.87085C76.6895 7.68098 76.7874 7.46523 76.7874 7.22358C76.7874 7.07686 76.7624 6.94956 76.7124 6.84168C76.6624 6.7338 76.579 6.63456 76.4623 6.54394C76.3456 6.45332 76.1934 6.36917 76.0059 6.2915C75.8183 6.21383 75.5911 6.12753 75.3244 6.03259C75.0076 5.92903 74.6971 5.81468 74.3928 5.68954C74.0885 5.5644 73.8176 5.39826 73.58 5.19114C73.3424 4.98401 73.1507 4.72294 73.0048 4.40793C72.8589 4.09293 72.7859 3.69378 72.7859 3.21048C72.7859 2.72718 72.8631 2.28919 73.0173 1.89651C73.1715 1.50383 73.3882 1.16725 73.6675 0.886765C73.9468 0.606278 74.2886 0.388365 74.6929 0.233019C75.0972 0.0776721 75.5494 0 76.0496 0C76.5165 0 77.0042 0.0668843 77.5127 0.200655C78.0212 0.334425 78.5089 0.530763 78.9757 0.789674L78.0003 2.77033ZM84.1719 5.15262C84.1719 5.54099 84.2427 5.89914 84.3845 6.22709C84.5262 6.55505 84.7179 6.83985 84.9597 7.0815C85.2014 7.32315 85.4828 7.51085 85.8037 7.64462C86.1247 7.77839 86.4644 7.84528 86.8228 7.84528C87.1813 7.84528 87.521 7.77839 87.842 7.64462C88.1629 7.51085 88.4464 7.32315 88.6923 7.0815C88.9382 6.83985 89.132 6.55505 89.2737 6.22709C89.4155 5.89914 89.4863 5.54099 89.4863 5.15262C89.4863 4.76425 89.4155 4.4061 89.2737 4.07815C89.132 3.75019 88.9382 3.46539 88.6923 3.22374C88.4464 2.98209 88.1629 2.79439 87.842 2.66062C87.521 2.52685 87.1813 2.45996 86.8228 2.45996C86.4644 2.45996 86.1247 2.52685 85.8037 2.66062C85.4828 2.79439 85.2014 2.98209 84.9597 3.22374C84.7179 3.46539 84.5262 3.75019 84.3845 4.07815C84.2427 4.4061 84.1719 4.76425 84.1719 5.15262ZM81.6094 5.1523C81.6094 4.42735 81.7386 3.75203 81.997 3.12633C82.2554 2.50063 82.6139 1.95477 83.0724 1.48873C83.5309 1.02269 84.079 0.658063 84.7168 0.394837C85.3545 0.131611 86.0568 0 86.8238 0C87.5824 0 88.2826 0.131611 88.9245 0.394837C89.5665 0.658063 90.1187 1.02269 90.5814 1.48873C91.0441 1.95477 91.4046 2.50063 91.663 3.12633C91.9215 3.75203 92.0507 4.42735 92.0507 5.1523C92.0507 5.87725 91.9215 6.55257 91.663 7.17827C91.4046 7.80397 91.0441 8.34983 90.5814 8.81587C90.1187 9.28191 89.5665 9.64654 88.9245 9.90976C88.2826 10.173 87.5824 10.3046 86.8238 10.3046C86.0568 10.3046 85.3545 10.173 84.7168 9.90976C84.079 9.64654 83.5309 9.28191 83.0724 8.81587C82.6139 8.34983 82.2554 7.80397 81.997 7.17827C81.7386 6.55257 81.6094 5.87725 81.6094 5.1523ZM97.1814 0.271484V5.57913C97.1814 5.86393 97.1918 6.1552 97.2126 6.45295C97.2335 6.7507 97.296 7.02039 97.4002 7.26204C97.5044 7.50369 97.669 7.70003 97.8941 7.85106C98.1192 8.00209 98.436 8.07761 98.8445 8.07761C99.253 8.07761 99.5676 8.00209 99.7886 7.85106C100.009 7.70003 100.174 7.50369 100.283 7.26204C100.391 7.02039 100.455 6.7507 100.476 6.45295C100.497 6.1552 100.508 5.86393 100.508 5.57913V0.271484H102.946V5.92866C102.946 7.4476 102.61 8.55658 101.939 9.25564C101.268 9.9547 100.237 10.3042 98.8445 10.3042C97.4523 10.3042 96.4186 9.9547 95.7433 9.25564C95.0681 8.55658 94.7305 7.4476 94.7305 5.92866V0.271484H97.1814ZM108.508 4.63442H108.97C109.454 4.63442 109.825 4.53086 110.083 4.32373C110.342 4.1166 110.471 3.81886 110.471 3.43049C110.471 3.04213 110.342 2.74438 110.083 2.53725C109.825 2.33013 109.454 2.22656 108.97 2.22656H108.508V4.63442ZM113.895 10.0324H110.844L108.506 6.27819V10.0324H106.055V0.271484H109.869C110.394 0.271484 110.852 0.351314 111.244 0.510976C111.636 0.670637 111.959 0.888551 112.213 1.16472C112.467 1.44089 112.659 1.76021 112.788 2.12269C112.918 2.48516 112.982 2.87352 112.982 3.28778C112.982 4.02999 112.809 4.63195 112.463 5.09367C112.117 5.5554 111.607 5.86824 110.931 6.03222L113.895 10.0324ZM122.668 3.53411C122.101 2.81779 121.401 2.45964 120.567 2.45964C120.201 2.45964 119.861 2.52868 119.548 2.66677C119.236 2.80485 118.967 2.99256 118.742 3.2299C118.517 3.46723 118.34 3.74987 118.21 4.07782C118.081 4.40578 118.017 4.75962 118.017 5.13935C118.017 5.52772 118.081 5.88587 118.21 6.21383C118.34 6.54178 118.519 6.82658 118.748 7.06823C118.977 7.30988 119.246 7.49974 119.555 7.63783C119.863 7.77592 120.197 7.84496 120.555 7.84496C121.339 7.84496 122.043 7.49975 122.668 6.80932V9.81267L122.418 9.90329C122.043 10.0414 121.693 10.1428 121.368 10.2075C121.043 10.2722 120.722 10.3046 120.405 10.3046C119.755 10.3046 119.132 10.1773 118.535 9.92271C117.939 9.66811 117.414 9.30996 116.96 8.84823C116.506 8.38651 116.141 7.83849 115.866 7.20416C115.591 6.56983 115.453 5.87725 115.453 5.12641C115.453 4.37557 115.589 3.68731 115.86 3.0616C116.13 2.4359 116.493 1.89651 116.947 1.44342C117.402 0.990327 117.929 0.636487 118.529 0.381892C119.129 0.127296 119.759 0 120.417 0C120.793 0 121.161 0.0409936 121.524 0.122982C121.887 0.20497 122.268 0.332266 122.668 0.504874V3.53411ZM130.712 2.42043H127.799V4.05156H130.55V6.20051H127.799V7.88342H130.712V10.0324H125.348V0.271484H130.712V2.42043ZM138.786 2.77033C138.519 2.54594 138.252 2.37981 137.985 2.27193C137.719 2.16405 137.46 2.11011 137.21 2.11011C136.893 2.11011 136.635 2.18778 136.435 2.34313C136.235 2.49848 136.135 2.70129 136.135 2.95157C136.135 3.12418 136.185 3.26657 136.285 3.37877C136.385 3.49096 136.516 3.58805 136.679 3.67004C136.841 3.75203 137.025 3.82323 137.229 3.88364C137.433 3.94406 137.635 4.00878 137.835 4.07782C138.636 4.354 139.221 4.72294 139.592 5.18466C139.963 5.64639 140.149 6.24835 140.149 6.99056C140.149 7.49112 140.067 7.9442 139.905 8.34983C139.742 8.75546 139.505 9.10283 139.192 9.39194C138.879 9.68106 138.496 9.90545 138.042 10.0651C137.587 10.2248 137.073 10.3046 136.497 10.3046C135.305 10.3046 134.201 9.93781 133.184 9.20423L134.234 7.15885C134.601 7.49543 134.963 7.74571 135.322 7.90969C135.68 8.07366 136.035 8.15565 136.385 8.15565C136.785 8.15565 137.083 8.06072 137.279 7.87085C137.475 7.68098 137.573 7.46523 137.573 7.22358C137.573 7.07686 137.548 6.94956 137.498 6.84168C137.448 6.7338 137.364 6.63456 137.248 6.54394C137.131 6.45332 136.979 6.36917 136.791 6.2915C136.604 6.21383 136.376 6.12753 136.11 6.03259C135.793 5.92903 135.482 5.81468 135.178 5.68954C134.874 5.5644 134.603 5.39826 134.365 5.19114C134.128 4.98401 133.936 4.72294 133.79 4.40793C133.644 4.09293 133.571 3.69378 133.571 3.21048C133.571 2.72718 133.648 2.28919 133.803 1.89651C133.957 1.50383 134.174 1.16725 134.453 0.886765C134.732 0.606278 135.074 0.388365 135.478 0.233019C135.882 0.0776721 136.335 0 136.835 0C137.302 0 137.789 0.0668843 138.298 0.200655C138.806 0.334425 139.294 0.530763 139.761 0.789674L138.786 2.77033Z" fill="#CAD0E2"/>
</svg>
