<svg width="116" height="19" viewBox="0 0 116 19" fill="none" xmlns="http://www.w3.org/2000/svg">
<path d="M4.54835 3.66321V9.48125C4.54835 10.1492 4.50397 11.0974 4.41523 11.7869C4.79241 11.0327 5.21396 10.3647 5.70207 9.65363L10.2282 3.08141C11.0713 1.85315 11.5816 0.969672 11.7813 0.387868H16.6181C16.485 1.40064 16.4406 2.30567 16.4406 3.59856V14.933C16.4406 16.5491 16.485 17.4757 16.6181 18.316H11.8923C12.0254 17.411 12.0698 16.3982 12.0698 14.9545V9.39505C12.0698 8.68396 12.0919 8.08061 12.2029 6.9601C11.737 7.84358 11.2932 8.59777 10.916 9.15802L6.523 15.5794C5.76864 16.6999 5.25833 17.5403 4.85897 18.316H0C0.110936 17.411 0.177497 16.4198 0.177497 15.1053V3.66321C0.177497 2.26257 0.133123 1.35754 0 0.387868H4.72584C4.59272 1.37909 4.54835 2.21947 4.54835 3.66321Z" fill="#CAD0E2"/>
<path d="M32.8267 4.20192V15.0623C32.8267 16.3552 32.8711 17.3033 33.0042 18.316H28.1009C28.234 17.3033 28.2784 16.4198 28.2784 15.0623V4.20192H25.6603C24.2625 4.20192 23.8853 4.22346 22.31 4.35275V0.237031C23.0422 0.323224 24.2625 0.387868 25.6159 0.387868H35.3338C36.8869 0.387868 37.7744 0.344772 38.795 0.237031V4.35275C37.7966 4.24501 36.9313 4.20192 35.3338 4.20192H32.8267Z" fill="#CAD0E2"/>
<path d="M42.5789 13.4246V9.33041C43.2667 9.43815 43.8879 9.48125 44.731 9.48125H49.124C49.9671 9.48125 50.5884 9.43815 51.2762 9.33041V13.4246C50.544 13.3168 49.945 13.2737 49.124 13.2737H44.731C43.9101 13.2737 43.311 13.3168 42.5789 13.4246Z" fill="#CAD0E2"/>
<path d="M72.979 18.316H67.2104C66.922 17.6265 66.3895 16.6353 65.8792 15.7518L63.8823 12.4118C63.1502 11.162 62.5511 10.7957 61.0868 10.7957H60.5321V15.1269C60.5321 16.2043 60.5765 17.1524 60.7096 18.316H55.9172C56.0503 17.174 56.0947 16.3982 56.0947 15.1269V3.57702C56.0947 2.26257 56.0503 1.46528 55.9172 0.387868H60.7096C60.5765 1.35754 60.5321 2.13328 60.5321 3.57702V7.02474H61.0646C61.3974 7.02474 61.7967 6.8739 62.2405 6.61532C62.3958 6.50758 62.8839 6.05507 63.0614 5.81804L65.4798 2.86592C67.1882 0.797287 68.4972 0 70.2278 0C71.0709 0 71.7809 0.129289 72.4243 0.430965L71.315 4.15882C71.0266 3.94334 70.8269 3.85714 70.5384 3.85714C70.0947 3.85714 69.7175 4.09417 69.185 4.71907L67.1216 7.17558C66.456 7.97287 65.5464 8.57622 64.6367 8.81325C66.1676 9.05028 67.0994 9.71828 68.2088 11.3775L70.8047 15.3208C71.3816 16.1828 72.3356 17.4757 72.979 18.316Z" fill="#CAD0E2"/>
<path d="M81.755 3.66321V9.48125C81.755 10.1492 81.7106 11.0974 81.6218 11.7869C81.999 11.0327 82.4206 10.3647 82.9087 9.65363L87.4348 3.08141C88.2779 1.85315 88.7883 0.969672 88.9879 0.387868H93.8247C93.6916 1.40064 93.6472 2.30567 93.6472 3.59856V14.933C93.6472 16.5491 93.6916 17.4757 93.8247 18.316H89.0989C89.232 17.411 89.2764 16.3982 89.2764 14.9545V9.39505C89.2764 8.68396 89.2986 8.08061 89.4095 6.9601C88.9436 7.84358 88.4998 8.59777 88.1226 9.15802L83.7296 15.5794C82.9752 16.6999 82.4649 17.5403 82.0656 18.316H77.2066C77.3175 17.411 77.3841 16.4198 77.3841 15.1053V3.66321C77.3841 2.26257 77.3397 1.35754 77.2066 0.387868H81.9325C81.7993 1.37909 81.755 2.21947 81.755 3.66321Z" fill="#CAD0E2"/>
<path d="M110.033 4.20192V15.0623C110.033 16.3552 110.078 17.3033 110.211 18.316H105.307C105.441 17.3033 105.485 16.4198 105.485 15.0623V4.20192H102.867C101.469 4.20192 101.092 4.22346 99.5166 4.35275V0.237031C100.249 0.323224 101.469 0.387868 102.823 0.387868H112.54C114.094 0.387868 114.981 0.344772 116.002 0.237031V4.35275C115.003 4.24501 114.138 4.20192 112.54 4.20192H110.033Z" fill="#CAD0E2"/>
</svg>
