<svg width="141" height="15" viewBox="0 0 141 15" fill="none" xmlns="http://www.w3.org/2000/svg">
<path d="M19.7593 0.262553C15.7057 0.206272 12.7217 3.00249 12.7781 7.35638C12.7217 11.7103 15.7057 14.4877 19.7593 14.4502C23.8129 14.5065 26.7781 11.7103 26.7405 7.35638C26.7781 3.00249 23.8129 0.224996 19.7593 0.262553ZM19.8718 12.3295H19.6654C17.0194 12.3295 15.274 10.4528 15.274 7.35638C15.274 4.25983 17.0194 2.38318 19.6654 2.38318H19.8718C22.518 2.38318 24.2633 4.25983 24.2633 7.35638C24.2633 10.4528 22.518 12.3295 19.8718 12.3295Z" fill="#CAD0E2"/>
<path d="M41.8879 0.46875L38.0406 11.7663L34.0809 0.46875H30.1211V14.2435H32.5795V2.85215L36.5769 14.2435H39.4669L43.3892 2.83332V14.2435H45.8476V0.46875H41.8879Z" fill="#CAD0E2"/>
<path d="M136.115 0.46875H133.225L128.496 14.2435H130.804L134.652 2.94599L138.611 14.2435H140.976L136.115 0.46875Z" fill="#CAD0E2"/>
<path d="M58.6664 1.38875V0H56.208V1.38875C52.4921 1.42631 49.3768 3.34051 49.4144 7.31905C49.3768 11.2789 52.4921 13.2118 56.208 13.2494V14.7131H58.6664V13.2494C62.3821 13.2118 65.4974 11.2789 65.46 7.31905C65.4974 3.34051 62.3821 1.42631 58.6664 1.38875ZM56.208 11.2413C53.8058 11.2225 51.8916 9.81501 51.9291 7.31905C51.8916 4.82308 53.8058 3.41552 56.208 3.3968V11.2413ZM58.6664 11.2413V3.37806C61.0685 3.39679 62.9827 4.80426 62.9452 7.30033C62.9827 9.79629 61.0872 11.2225 58.6664 11.2413Z" fill="#CAD0E2"/>
<path d="M75.2203 0.262553C71.1668 0.206272 68.1828 3.00249 68.2391 7.35638C68.1828 11.7103 71.1668 14.4877 75.2203 14.4502C79.274 14.5065 82.2391 11.7103 82.2016 7.35638C82.2391 3.00249 79.274 0.224996 75.2203 0.262553ZM75.3142 12.3295H75.1078C72.4617 12.3295 70.7163 10.4528 70.7163 7.35638C70.7163 4.25983 72.4617 2.38318 75.1078 2.38318H75.3142C77.9602 2.38318 79.7056 4.25983 79.7056 7.35638C79.7056 10.4528 77.9602 12.3295 75.3142 12.3295Z" fill="#CAD0E2"/>
<path d="M92.2596 0.469377H85.8789V14.2629H88.3749V9.02693L92.2596 9.02705C95.0183 9.02705 96.9325 7.41308 96.9325 4.74816C96.9513 2.08335 94.9996 0.43182 92.2596 0.469377ZM91.9406 6.90632H88.3749V2.58999H91.9406C93.5546 2.58999 94.4366 3.39698 94.4366 4.74816C94.4366 6.08062 93.5546 6.90632 91.9406 6.90632Z" fill="#CAD0E2"/>
<path d="M98.9023 0.46875V2.57064H104.026V14.2435H106.503V2.57064H111.626V0.46875H98.9023Z" fill="#CAD0E2"/>
<path d="M125.101 2.57064V0.46875H114.723V14.2435H125.101V12.1417H117.219V8.23816H125.101V6.11755H117.219V2.57064H125.101Z" fill="#CAD0E2"/>
<path d="M12.4423 13.9807H8.35116L2.77748 9.13889L2.70236 9.06378V13.9807H0V0.731445H2.70236V5.38558L8.10721 0.731445H11.7668L4.61658 7.07455L12.4423 13.9807Z" fill="#CAD0E2"/>
<path d="M2.68401 5.38574V9.08277L0.488281 7.24356L2.68401 5.38574Z" fill="#CAD0E2"/>
</svg>
