<svg width="123" height="41" viewBox="0 0 123 41" fill="none" xmlns="http://www.w3.org/2000/svg">
<path fill-rule="evenodd" clip-rule="evenodd" d="M41.6563 19.1652C40.8999 21.076 40.1435 22.7551 39.329 24.7238C37.9326 28.2558 37.8744 28.719 34.9653 29.2401L24.8417 30.9772C23.038 31.3246 21.5835 31.672 19.7216 31.3825L8.5507 29.877C4.41977 29.3559 4.53614 27.9084 3.48886 24.608L1.16158 17.1387L0.81249 15.9806L0.521579 14.9963L0.347033 14.4173C-0.234787 12.6223 -0.409333 11.8117 2.49977 11.2906L16.9289 8.4534C21.0598 7.64277 21.0017 7.93228 25.3071 8.97451L40.4926 12.796C44.0999 13.7225 43.4017 14.4752 41.6563 19.1652ZM17.5689 12.8539L20.5362 26.8662C21.0016 29.1822 19.6635 29.1243 17.1616 28.8348L7.61979 27.9084C5.75796 27.7347 15.1253 27.6189 18.1507 27.3294C19.4307 27.2136 18.9071 26.6346 18.558 25.4186C18.3253 24.6659 17.1035 24.7817 16.2889 24.6659L6.16523 23.6816L16.9871 23.5658C18.0926 23.5079 18.6162 22.8709 18.3835 21.7129C18.1507 20.5549 17.5107 20.6128 16.0562 20.497L4.18705 19.3968L15.998 19.1073C17.5689 18.9915 16.6962 16.6754 15.8235 16.6754L3.72159 16.7333L15.2416 15.3437C16.0562 15.2279 16.2307 14.7647 16.1144 14.3594C15.9398 13.8383 15.4162 13.433 14.718 13.433L2.03431 13.7225L15.0089 11.7538C16.5798 11.4643 17.2198 11.1748 17.5689 12.8539ZM20.8853 12.796C21.0017 13.3171 21.2344 14.5331 21.758 14.591C29.9617 15.6911 39.7944 17.4282 38.2235 17.4861C36.3035 17.544 21.0016 15.5753 21.0598 15.8648C21.1762 16.5596 21.2926 17.3124 21.4089 18.0072C21.4671 18.2388 37.5835 19.2231 37.6417 19.4547C37.6999 19.7442 21.3507 19.2231 21.4089 19.4547C21.4671 19.9758 21.5253 20.497 21.6417 21.0181C21.6417 21.4234 36.6526 21.4234 36.7108 21.7708C36.8272 22.3498 21.6417 22.5235 21.758 23.1025C21.8162 23.3921 21.9907 24.4922 22.0489 24.8975C22.0489 25.1291 34.9653 24.5501 35.0235 24.7817C35.0817 25.2449 22.2817 26.5187 22.2817 26.8083C22.5726 28.6032 23.6198 28.6611 26.4708 28.4874C28.7399 28.3716 31.4162 28.14 33.8599 27.7926C35.5472 27.6189 36.2453 27.6189 37.409 25.2449C39.2126 21.7129 41.1326 15.3437 40.9581 15.2858C37.6417 14.591 29.089 12.5065 24.0271 11.638C20.8853 11.1169 20.5944 10.7695 20.8853 12.796Z" fill="#CAD0E2"/>
<path fill-rule="evenodd" clip-rule="evenodd" d="M29.2039 0.98433C28.4476 0.98433 27.8076 1.85286 27.8076 3.01089C27.8076 4.11102 28.4476 5.03745 29.2039 5.03745C29.3203 5.03745 29.3785 5.03745 29.4949 5.03745L42.4113 5.44276C42.5276 5.44276 42.644 5.50067 42.8185 5.50067C43.0513 5.50067 43.284 5.38486 43.5167 5.26906C44.0404 4.57424 44.5058 3.58991 43.4585 3.58991C43.3422 3.70571 43.2258 3.76361 43.1094 3.76361C42.644 3.76361 42.3531 3.2425 42.3531 2.66348C42.3531 2.02656 42.644 1.56335 43.1094 1.56335C43.2258 1.56335 43.4004 1.62125 43.5167 1.79495L44.564 1.91076C44.3313 0.810625 43.6331 0 42.8185 0C41.7713 0 40.8985 1.21594 40.8985 2.72138C40.8985 2.83719 40.9567 2.95299 40.9567 3.01089C40.7822 2.72138 40.724 2.31607 40.724 1.91076C40.724 1.15804 41.0149 0.463214 41.4222 0.115804L29.3785 0.98433C29.3203 0.98433 29.2621 0.98433 29.2039 0.98433ZM8.84023 32.425C7.61841 32.5987 6.6875 33.9304 6.6875 35.4938C6.6875 36.8255 7.44387 37.9835 8.43296 38.3889C8.60751 38.4468 9.5966 38.6205 10.1202 38.6784C10.2366 38.6784 10.2948 38.6784 10.4111 38.6784C11.8657 38.6784 13.0293 37.2308 13.0293 35.4938C13.0293 33.6988 11.8657 32.2513 10.4111 32.2513C9.42206 32.2513 8.49114 33.004 8.08387 34.0462C8.25841 33.4093 8.49114 32.8882 8.84023 32.425ZM10.8184 34.3357C10.353 34.3357 10.0039 34.9148 10.0039 35.5517C10.0039 36.2465 10.353 36.8255 10.8184 36.8255C11.2839 36.8255 11.6912 36.2465 11.6912 35.5517C11.6912 34.9148 11.2839 34.3357 10.8184 34.3357ZM22.4548 32.7724C21.0003 32.8303 19.8366 34.5673 19.8366 36.7676C19.8366 38.7942 21.233 40.3575 22.513 40.5891C22.9203 40.647 24.3167 40.8207 24.4912 40.8207C24.4912 40.8207 24.4912 40.8207 24.5494 40.8207C26.1203 40.8207 27.4003 38.91 27.4003 36.5939C27.4003 34.2778 26.1203 32.3671 24.5494 32.3671C22.9203 32.3671 21.6403 34.2778 21.6403 36.5939C21.6403 37.8098 21.9894 38.91 22.5712 39.7206C21.8148 38.91 21.2912 37.6361 21.2912 36.1886C21.2912 34.799 21.7566 33.5251 22.4548 32.7724ZM24.5494 34.3936C23.6766 34.3936 23.0366 35.378 23.0366 36.5939C23.0366 37.8098 23.6766 38.7942 24.5494 38.7942C25.3639 38.7942 26.0039 37.8098 26.0039 36.5939C26.0039 35.378 25.3639 34.3936 24.5494 34.3936ZM34.4985 31.2669C33.5676 31.2669 32.8112 32.3671 32.8112 33.6988C32.8112 33.9304 32.8694 34.1041 32.8694 34.3357C32.753 33.9883 32.6949 33.583 32.6949 33.1777C32.6949 32.5987 32.8694 32.0197 33.1021 31.5565C32.4621 31.9039 31.9967 32.7145 31.9967 33.6988C31.9967 34.799 32.6367 35.7254 33.4512 35.8991C33.5676 35.957 34.033 36.0149 34.324 36.0728C34.324 36.0728 34.3821 36.0728 34.4403 36.0728H34.4985C35.4294 36.0728 36.1276 35.0306 36.1276 33.6988C36.1276 32.3671 35.4294 31.2669 34.4985 31.2669ZM34.6149 32.7145C34.2658 32.7145 34.033 33.1198 34.033 33.6409C34.033 34.1041 34.2658 34.5673 34.6149 34.5673C34.964 34.5673 35.2549 34.1041 35.2549 33.6409C35.2549 33.1198 34.964 32.7145 34.6149 32.7145ZM27.5167 2.95299C26.353 2.95299 26.1203 3.4162 25.713 3.99522C25.3639 4.51634 24.3748 7.41142 24.0257 7.87464C24.3167 7.99044 24.7239 8.16415 25.1312 8.33785C25.4221 7.93254 26.353 5.15326 26.6439 4.69004C26.8185 4.45844 26.8767 4.11102 27.633 4.11102C27.5167 3.93732 27.3421 3.4162 27.5167 2.95299ZM43.0513 2.02656C44.2731 2.02656 45.0294 2.20027 45.4367 2.77928C45.844 3.3583 45.7858 4.16893 45.2622 5.44276C44.9713 6.07968 44.6804 6.7166 44.3895 7.29562C43.6913 8.80107 42.7022 11.175 42.2367 12.7963L41.1894 12.2752C41.6549 10.5381 42.644 8.33785 43.3422 6.83241C43.6331 6.19549 43.924 5.55857 44.1567 4.97955C44.5058 4.11102 44.6222 3.64781 44.5058 3.47411C44.3313 3.3004 43.8658 3.2425 43.0513 3.2425C42.8185 3.06879 42.8185 2.20027 43.0513 2.02656Z" fill="#CAD0E2"/>
<path d="M48.6415 15.692C49.1651 14.8235 49.6888 14.0129 50.1542 13.376C50.6779 12.6811 51.2015 12.1021 51.7251 11.6968C52.307 11.2336 52.8888 10.9441 53.5288 10.7125C54.1688 10.5388 54.867 10.423 55.6815 10.4809C56.0306 10.4809 56.4379 10.6546 56.9033 10.8862C57.3688 11.1757 57.7761 11.5231 58.1252 11.8705C58.4743 12.2179 58.7652 12.6232 58.9979 13.0286C59.1724 13.4339 59.2306 13.7813 59.1143 14.0708C59.1143 14.2445 59.0561 14.3603 58.9979 14.4182C58.9397 14.534 58.8233 14.6498 58.6488 14.7656C58.8233 15.4604 58.9979 16.0395 59.2306 16.5027C59.4633 16.908 59.6961 17.3133 59.9288 17.6028C60.2197 17.9502 60.4524 18.2397 60.6852 18.4713C60.9761 18.7608 61.1506 18.9924 61.3834 19.3399C61.7906 18.7608 62.8961 17.9502 64.5834 16.908C66.2125 15.9236 68.4234 14.7656 71.0997 13.4918C71.4488 12.9128 71.9143 12.3916 72.4379 11.9863C73.0198 11.5231 73.7179 11.3494 74.4161 11.4073C74.5907 11.4073 74.8816 11.4652 75.2889 11.6389C75.6379 11.8126 75.987 11.9863 76.3943 12.2758C76.7434 12.5074 76.9761 12.8549 77.2089 13.2602C77.3834 13.6076 77.4416 14.0129 77.267 14.534C77.2089 14.6498 77.0925 14.8235 76.9179 15.113C76.8016 15.3446 76.627 15.5183 76.3943 15.7499C75.8707 16.329 75.4052 16.9659 74.9398 17.6607C74.4743 18.3555 74.0088 19.1082 73.6016 19.861C73.1943 20.6137 72.8452 21.4243 72.4961 22.177C72.147 22.9877 71.7979 23.7404 71.5652 24.4931C71.2743 25.3037 71.0416 26.0565 70.867 26.7513C70.6925 27.504 70.5179 28.1409 70.2852 28.7199C70.1107 29.1252 69.9361 29.4727 69.6452 29.7622C69.3543 29.9938 68.8888 30.1675 68.3652 30.1675C68.2488 30.1675 68.1325 30.1675 68.0743 30.1675C67.9579 30.1675 67.8416 30.1675 67.7252 30.1675C67.667 30.1675 67.5506 30.2254 67.4925 30.2254C67.4343 30.2254 67.3761 30.2254 67.3179 30.2254C66.6197 30.2833 66.0379 30.2254 65.6306 30.0517C65.1652 29.878 64.8743 29.5306 64.6997 28.9515C64.5834 28.3725 64.6415 27.504 64.8161 26.4618C65.0488 25.3616 65.4561 23.972 66.0379 22.2349C66.2125 21.7138 66.387 21.2506 66.5616 20.7874C66.7361 20.3242 66.9688 19.861 67.1434 19.4557C67.0852 19.5715 66.9688 19.6873 66.8525 19.7452C66.7943 19.9189 66.5616 20.1505 66.2125 20.4979C65.8634 20.8453 65.4561 21.1927 65.0488 21.598C64.5834 22.0033 64.2343 22.3507 63.827 22.6982C63.4779 23.1035 63.3034 23.393 63.2452 23.5667C63.187 23.6246 63.187 23.6825 63.187 23.6825C63.2452 23.7404 63.2452 23.7983 63.187 23.8562C63.1288 24.0878 62.9543 24.3194 62.6634 24.551C62.4306 24.7247 62.0815 24.9563 61.7324 25.0721C61.3834 25.2458 60.9761 25.3616 60.5688 25.4774C60.1615 25.5932 59.6961 25.6511 59.2888 25.6511C58.067 25.709 57.1361 25.3616 56.4379 24.551C55.7397 23.7983 55.1579 22.5823 54.6924 20.9032C54.4597 21.3085 54.3433 21.6559 54.1688 22.0033C54.0524 22.4086 53.8779 22.7561 53.7615 23.1035C53.5288 23.7983 53.3542 24.4931 53.1797 25.1879C53.0051 25.9407 52.8888 26.5776 52.7724 27.2145C52.5979 27.8514 52.4815 28.4304 52.4233 28.9515C52.307 29.5306 52.1906 29.9938 52.0742 30.3412C51.8415 30.9202 51.4342 31.3255 50.9106 31.4992C50.3288 31.6729 49.5142 31.8466 48.4669 31.9045C47.4779 32.0203 46.6051 31.9045 45.9651 31.6729C45.2669 31.4413 44.8597 30.9202 44.6269 30.1096C44.4524 29.3569 44.4524 28.3146 44.7433 26.925C44.976 25.5353 45.4415 23.7404 46.1397 21.598C46.5469 20.3821 46.9542 19.224 47.4197 18.1818C47.8851 17.1396 48.2924 16.329 48.6415 15.692ZM92.3362 15.113C92.2198 15.4025 92.0453 15.8078 91.8125 16.3869C91.638 16.908 91.4635 17.5449 91.2307 18.2397C90.998 18.8766 90.8234 19.6294 90.5907 20.3242C90.4162 21.0769 90.2416 21.7717 90.0671 22.4086C89.8925 22.9877 89.718 23.5667 89.6016 24.0299C89.4853 24.4931 89.4271 24.7826 89.3689 24.9563C89.2525 25.4195 89.1362 25.8248 88.9616 26.2302C88.8453 26.5776 88.6707 26.925 88.4962 27.2145C88.3216 27.504 88.0889 27.7356 87.8562 27.9093C87.6234 28.083 87.3325 28.1409 86.9834 28.1988C86.4598 28.1988 86.0525 28.1988 85.7034 28.1409C85.4125 28.0251 85.1798 27.8514 85.0052 27.6198C84.8307 27.3882 84.7725 27.0987 84.7143 26.7513C84.7143 26.346 84.7725 25.8828 84.8307 25.3616C84.5398 25.3616 84.3071 25.4195 84.0162 25.4195C83.7252 25.4774 83.4343 25.4774 83.1434 25.4774C82.7943 25.5353 82.5034 25.5353 82.2125 25.5353C81.9798 25.5353 81.7471 25.5353 81.5143 25.5353C81.2816 25.5353 81.1071 25.4774 80.8743 25.4774C80.6416 25.4774 80.4089 25.4195 80.118 25.4195C79.5361 26.1144 79.1289 26.6934 78.838 27.1566C78.547 27.6198 78.2561 27.9672 78.0816 28.2567C77.8489 28.5462 77.6161 28.7199 77.4416 28.8357C77.2089 29.0094 76.9179 29.0673 76.5107 29.0673C75.987 29.1252 75.5216 29.1252 75.0561 29.0673C74.5907 29.0094 74.1834 28.8936 73.8925 28.7199C73.5434 28.5462 73.3107 28.3146 73.1943 27.9672C73.0779 27.6777 73.1361 27.2724 73.3107 26.7513C73.427 26.4039 73.6598 25.9986 74.0088 25.4774C74.2998 24.8984 74.7652 24.3194 75.4052 23.6246C75.2307 23.4509 75.1143 23.1614 75.1143 22.8719C75.1143 22.5823 75.1725 22.2349 75.2889 21.8875C75.5216 21.3085 75.8125 20.7295 76.2779 20.2663C76.6852 19.7452 77.1507 19.3978 77.6743 19.2819C77.7907 19.2819 77.907 19.3399 78.0234 19.4557C78.1398 19.5715 78.198 19.7452 78.3143 19.861C78.4889 20.0347 78.6052 20.2084 78.7216 20.3242C78.8961 20.4979 79.0707 20.6137 79.3034 20.6716C79.2452 20.5558 79.187 20.44 79.0707 20.3821C79.0125 20.2663 78.9543 20.1505 78.838 20.0347C79.478 19.3978 80.1761 18.7608 80.9907 18.066C81.7471 17.3133 82.5034 16.6764 83.318 16.0395C84.0743 15.4025 84.7725 14.8814 85.4707 14.4761C86.1107 14.0708 86.6925 13.7813 87.0998 13.7234C87.6234 12.8549 88.0889 12.2179 88.438 11.8705C88.7871 11.5231 89.1944 11.2915 89.6016 11.4073C90.8816 11.6389 91.7544 12.0442 92.278 12.3916C92.8016 12.7391 93.0344 13.1444 93.0344 13.5497C93.0344 13.6655 93.0344 13.8392 92.9762 13.8971C92.918 14.0708 92.8598 14.2445 92.7435 14.3603C92.6853 14.534 92.5689 14.7656 92.3362 15.113ZM83.318 21.4822C83.6089 21.598 83.8416 21.6559 84.0743 21.6559C84.2489 21.7138 84.4816 21.7717 84.6562 21.7717C84.7725 21.7717 84.9471 21.7717 85.0634 21.8296C85.238 21.8296 85.2962 21.8296 85.4125 21.8296C85.4707 21.2506 85.5289 20.7874 85.6453 20.3821C85.7034 19.9189 85.7616 19.5136 85.8198 18.9924C85.5871 19.224 85.2962 19.3978 85.1216 19.5715C84.8889 19.7452 84.7143 19.9768 84.4816 20.1505C84.3071 20.3242 84.1325 20.5558 83.958 20.7295C83.7834 20.9611 83.5507 21.1927 83.318 21.4822ZM94.198 14.7656C94.5471 14.2445 94.838 13.8392 95.1289 13.4918C95.3616 13.2023 95.5944 12.9707 95.7689 12.797C95.9435 12.6232 96.1762 12.5074 96.3507 12.4495C96.5253 12.3916 96.758 12.3916 96.9907 12.4495C97.1071 12.4495 97.2235 12.4495 97.3398 12.4495C97.4562 12.4495 97.6307 12.5074 97.7471 12.5074C97.9798 12.5074 98.1544 12.6232 98.3871 12.7391C98.678 12.9128 98.8526 13.0865 99.0271 13.2602C99.2598 13.4918 99.3762 13.7234 99.4344 13.955C99.5508 14.1866 99.5508 14.4182 99.4344 14.7077C99.3762 14.8235 99.2598 15.0551 99.0853 15.3446C98.8526 15.6341 98.6198 15.9236 98.3871 16.2132C97.8635 16.8501 97.398 17.5449 96.9326 18.2397C96.4671 18.9345 96.0598 19.6294 95.6526 20.3242C96.0598 20.3242 96.4671 20.3242 96.758 20.3242C97.0489 20.3242 97.3398 20.3821 97.7471 20.44C97.9217 19.9189 98.1544 19.4557 98.3871 18.9345C98.6198 18.4134 98.8526 17.8923 99.0853 17.4291C99.3762 16.9659 99.6089 16.5027 99.8998 16.0974C100.133 15.692 100.365 15.3446 100.598 14.9972C100.947 14.534 101.238 14.1287 101.413 13.8392C101.645 13.5497 101.878 13.3181 102.053 13.1444C102.227 12.9707 102.402 12.8549 102.576 12.8549C102.751 12.797 102.925 12.797 103.158 12.797C103.274 12.797 103.333 12.797 103.449 12.797C103.565 12.8549 103.74 12.8549 103.856 12.8549C104.031 12.9128 104.205 12.9707 104.438 13.0865C104.613 13.2602 104.787 13.4339 104.962 13.6076C105.136 13.7813 105.253 14.0129 105.311 14.2445C105.369 14.4761 105.369 14.7077 105.311 14.9393C105.253 15.0551 105.136 15.2867 104.903 15.5183C104.729 15.8078 104.496 16.0974 104.322 16.329C103.391 17.5449 102.576 18.7608 101.936 19.9768C101.238 21.2506 100.714 22.3507 100.365 23.393C100.074 24.0878 99.8417 24.7247 99.7253 25.2458C99.6089 25.709 99.4926 26.1144 99.3762 26.4618C99.2598 26.7513 99.0853 26.9829 98.8526 27.1566C98.6198 27.3303 98.2707 27.4461 97.8053 27.504C97.2817 27.5619 96.9326 27.4461 96.6417 27.2724C96.4089 27.0987 96.2926 26.7513 96.2344 26.4039C96.1762 25.9986 96.1762 25.5353 96.2926 25.0142C96.3507 24.4931 96.5253 23.8562 96.6998 23.2193C96.3507 23.1614 96.0016 23.1614 95.5944 23.1035C95.1871 23.1035 94.7798 23.1035 94.3726 23.1035C94.3144 23.1614 94.2562 23.2772 94.2562 23.3351C94.198 23.4509 94.198 23.5088 94.1398 23.6246C93.8489 24.3773 93.6744 25.0142 93.558 25.5932C93.4416 26.1144 93.3253 26.5197 93.1507 26.8671C93.0344 27.1566 92.8598 27.4461 92.6271 27.6198C92.3944 27.7935 91.9871 27.9093 91.4053 27.9672C90.7653 28.0251 90.2998 27.9093 90.0089 27.5619C89.7762 27.2724 89.6016 26.8092 89.6016 26.2302C89.6016 25.6511 89.6598 24.9563 89.8925 24.2036C90.0671 23.393 90.358 22.5823 90.7071 21.7138C90.9398 21.0769 91.1725 20.44 91.4635 19.8031C91.7544 19.1661 92.0453 18.5292 92.3362 17.9502C92.6271 17.3133 92.9762 16.7343 93.2671 16.2132C93.6162 15.692 93.9071 15.1709 94.198 14.7656ZM105.602 15.1709C105.893 14.7077 106.125 14.3603 106.358 14.0708C106.591 13.7813 106.765 13.5497 106.94 13.4339C107.114 13.2602 107.289 13.1444 107.464 13.1444C107.58 13.0865 107.754 13.0865 107.987 13.0865C108.045 13.0865 108.162 13.0865 108.22 13.0865C108.336 13.1444 108.453 13.1444 108.569 13.1444C108.744 13.2023 108.918 13.2602 109.093 13.376C109.267 13.4918 109.442 13.6655 109.616 13.8392C109.733 14.0129 109.849 14.2445 109.907 14.4761C109.965 14.6498 109.965 14.8814 109.907 15.113C109.849 15.2288 109.733 15.4604 109.5 15.692C109.325 15.9815 109.151 16.2132 108.918 16.4448C108.511 17.0817 108.045 17.7186 107.638 18.3555C107.231 18.9924 106.882 19.5715 106.533 20.2084C106.882 20.2084 107.173 20.2084 107.405 20.2084C107.638 20.2084 107.929 20.2663 108.22 20.3242C108.394 19.861 108.569 19.3978 108.802 18.9345C109.034 18.4713 109.267 18.0081 109.5 17.6028C109.733 17.1975 109.965 16.7922 110.14 16.3869C110.373 16.0395 110.605 15.692 110.78 15.4025C111.071 14.9393 111.304 14.5919 111.536 14.3024C111.711 14.0708 111.885 13.8392 112.06 13.7234C112.234 13.5497 112.351 13.4918 112.525 13.4339C112.642 13.376 112.816 13.376 112.991 13.376C113.049 13.376 113.165 13.376 113.224 13.4339C113.34 13.4339 113.456 13.4339 113.573 13.4339C113.689 13.4918 113.864 13.5497 114.038 13.6655C114.213 13.7813 114.329 13.955 114.445 14.1287C114.62 14.3024 114.678 14.4761 114.736 14.7077C114.794 14.8814 114.794 15.113 114.678 15.2867C114.62 15.4025 114.504 15.6341 114.329 15.8657C114.154 16.0974 113.98 16.329 113.805 16.6185C112.991 17.6607 112.293 18.8187 111.711 19.9189C111.071 21.0769 110.605 22.0612 110.256 22.9877C109.965 23.6246 109.791 24.2036 109.674 24.6668C109.558 25.13 109.442 25.5353 109.325 25.8248C109.209 26.0565 109.093 26.2881 108.86 26.4618C108.685 26.6355 108.394 26.6934 107.987 26.7513C107.58 26.7513 107.231 26.6934 107.056 26.5197C106.882 26.346 106.765 26.0565 106.707 25.709C106.707 25.3616 106.707 24.9563 106.824 24.4931C106.94 23.972 107.056 23.4509 107.289 22.8719C106.998 22.814 106.707 22.7561 106.358 22.7561C106.009 22.6982 105.718 22.6982 105.369 22.6982C105.311 22.814 105.311 22.8719 105.253 22.9298C105.194 23.0456 105.194 23.1035 105.136 23.1614C104.903 23.8562 104.671 24.4931 104.554 24.9563C104.438 25.4195 104.322 25.8248 104.205 26.1723C104.147 26.4039 103.973 26.6355 103.74 26.8092C103.565 26.9829 103.216 27.0987 102.751 27.1566C102.227 27.1566 101.878 27.0408 101.645 26.7513C101.413 26.4618 101.296 26.0565 101.354 25.5353C101.354 25.0142 101.471 24.3773 101.645 23.6825C101.878 22.9877 102.111 22.2349 102.402 21.4243C102.634 20.8453 102.867 20.3242 103.158 19.7452C103.391 19.1661 103.682 18.5871 103.914 18.066C104.205 17.487 104.496 16.9659 104.787 16.5027C105.02 16.0395 105.311 15.5762 105.602 15.1709ZM122.184 16.1553C122.067 16.3869 121.951 16.6764 121.776 17.0817C121.602 17.487 121.427 17.9502 121.253 18.4713C121.078 18.9345 120.904 19.5136 120.729 20.0347C120.554 20.6137 120.38 21.0769 120.264 21.5401C120.089 22.0612 119.973 22.4665 119.856 22.814C119.74 23.1614 119.624 23.393 119.624 23.5088C119.507 23.8562 119.391 24.1457 119.274 24.4352C119.158 24.7247 119.042 24.9563 118.925 25.1879C118.809 25.4195 118.634 25.5932 118.518 25.709C118.344 25.8248 118.169 25.8828 117.994 25.8828C117.704 25.9407 117.471 25.8828 117.296 25.8248C117.122 25.7669 117.005 25.6511 116.947 25.4774C116.889 25.3037 116.889 25.0721 116.889 24.7826C116.947 24.4931 117.005 24.1457 117.064 23.7404C116.947 23.7983 116.773 23.7983 116.656 23.7983C116.482 23.7983 116.307 23.7983 116.133 23.8562C115.958 23.8562 115.784 23.8562 115.667 23.8562C115.551 23.8562 115.376 23.8562 115.26 23.8562C115.144 23.8562 115.027 23.7983 114.911 23.7983C114.794 23.7983 114.678 23.7404 114.562 23.7404C114.154 24.2615 113.922 24.6668 113.689 25.0142C113.514 25.3616 113.282 25.5932 113.165 25.8248C113.049 26.0565 112.874 26.1723 112.758 26.2881C112.642 26.346 112.467 26.4039 112.293 26.4039C112.002 26.4618 111.769 26.4039 111.478 26.4039C111.245 26.346 111.071 26.2302 110.896 26.1144C110.78 25.9986 110.664 25.7669 110.664 25.5353C110.605 25.3037 110.664 25.0142 110.838 24.6668C110.954 24.4352 111.071 24.0878 111.304 23.7404C111.536 23.3351 111.827 22.8719 112.234 22.4086C112.176 22.2349 112.118 22.0612 112.176 21.8296C112.176 21.6559 112.234 21.3664 112.351 21.1348C112.525 20.7295 112.758 20.3242 112.991 19.9768C113.282 19.5715 113.573 19.3399 113.864 19.2819C113.922 19.2819 113.98 19.2819 113.98 19.3978C114.038 19.4557 114.096 19.5715 114.154 19.6873C114.213 19.8031 114.271 19.9189 114.329 20.0347C114.387 20.1505 114.445 20.2084 114.562 20.2663C114.562 20.2084 114.504 20.0926 114.504 20.0347C114.445 19.9768 114.445 19.861 114.387 19.8031C114.794 19.3399 115.202 18.8766 115.725 18.3555C116.191 17.8344 116.656 17.3712 117.122 16.908C117.587 16.4448 118.053 16.0395 118.46 15.7499C118.867 15.4025 119.158 15.2288 119.449 15.1709C119.798 14.534 120.089 14.0708 120.322 13.7813C120.554 13.5497 120.787 13.376 121.02 13.4339C121.66 13.6076 122.125 13.8971 122.358 14.1287C122.649 14.4182 122.707 14.6498 122.707 14.9972C122.707 15.0551 122.649 15.1709 122.649 15.2867C122.591 15.4025 122.533 15.5183 122.474 15.6341C122.416 15.692 122.3 15.9236 122.184 16.1553ZM116.656 20.8453C116.773 20.9611 116.889 21.019 117.005 21.019C117.122 21.0769 117.238 21.0769 117.296 21.0769C117.413 21.0769 117.471 21.1348 117.529 21.1348C117.645 21.1348 117.704 21.1348 117.762 21.1348C117.82 20.7295 117.936 20.3821 117.994 20.0347C118.053 19.7452 118.169 19.3978 118.227 19.0503C118.053 19.1661 117.936 19.3399 117.762 19.4557C117.645 19.6294 117.529 19.7452 117.413 19.861C117.296 20.0347 117.18 20.1505 117.064 20.3242C116.947 20.4979 116.773 20.6716 116.656 20.8453Z" fill="#CAD0E2"/>
<path fill-rule="evenodd" clip-rule="evenodd" d="M107.461 36.4782L67.4321 36.1887C64.523 36.3045 64.1739 35.8992 64.4066 35.6097C64.5811 35.3202 65.2793 35.1465 67.5484 34.7991C76.5666 33.5252 98.8504 31.6724 110.196 30.9776C116.712 30.5143 117.236 31.3829 116.072 32.5409C114.85 33.7568 113.803 34.857 112.698 35.9571C112.174 36.4782 111.069 36.7098 107.461 36.4782Z" fill="#CAD0E2"/>
</svg>
