<svg width="106" height="26" viewBox="0 0 106 26" fill="none" xmlns="http://www.w3.org/2000/svg">
<path d="M103.787 20.7096V21.8757H100.901V22.7837H104.485V20.6379L103.787 20.7096ZM101.541 17.4454C101.345 17.565 101.192 17.7131 101.082 17.9185C100.948 18.1622 100.882 18.4682 100.882 18.8314C100.882 19.1994 100.948 19.5005 101.082 19.7442C101.192 19.9497 101.345 20.1025 101.541 20.2173C101.727 20.3559 102.076 20.4228 102.578 20.4228H102.812C103.223 20.4228 103.515 20.3846 103.692 20.3034C103.974 20.1838 104.179 19.9975 104.318 19.7442C104.447 19.5052 104.514 19.1994 104.514 18.8314C104.514 18.4633 104.447 18.1576 104.318 17.9185C104.184 17.6653 103.974 17.4789 103.692 17.3595C103.524 17.2829 103.233 17.2447 102.812 17.2447H102.578C102.076 17.2447 101.732 17.3116 101.541 17.4454ZM103.62 19.3857C103.558 19.4623 103.348 19.5339 102.984 19.5339H102.435C102.033 19.5339 101.818 19.4574 101.761 19.3667C101.665 19.2711 101.613 19.0943 101.603 18.8314C101.613 18.5684 101.665 18.3918 101.761 18.2962C101.818 18.2053 102.057 18.148 102.454 18.148H102.999C103.367 18.148 103.558 18.2053 103.62 18.2818C103.73 18.3582 103.787 18.5399 103.792 18.8314C103.787 19.123 103.73 19.3093 103.62 19.3857ZM102.353 14.2961V15.1993V15.6247L103.003 15.6962V15.1657H103.792V15.2375V15.333C103.792 15.6675 103.735 15.8731 103.615 15.9543C103.558 16.0451 103.381 16.1121 103.018 16.1121H102.459C102.072 16.1121 101.809 16.0309 101.751 15.94C101.646 15.8397 101.594 15.6293 101.594 15.3092C101.594 15.118 101.622 14.7643 101.68 14.4155L100.972 14.4919C100.91 14.8169 100.877 15.1132 100.877 15.4C100.877 16.0834 101.097 16.5327 101.536 16.8003C101.723 16.9292 102.071 17.0009 102.568 17.0009H102.803C103.223 17.0009 103.515 16.9579 103.692 16.8862C104.241 16.6521 104.514 16.155 104.514 15.4048C104.514 15.0845 104.485 14.8217 104.451 14.6162C104.432 14.5014 104.409 14.3963 104.385 14.2961H103.003H102.779H102.353ZM100.901 13.0391V13.9519H104.485V13.0391H102.86H100.901ZM104.514 11.5003V11.3857C104.499 11.1179 104.485 10.8216 104.351 10.5732C104.203 10.2816 103.931 10.1096 103.539 10.0666C103.343 10.0427 103.023 10.0427 102.793 10.2721C102.583 10.468 102.478 10.8169 102.387 11.1419C102.296 11.4477 102.224 11.6866 102.067 11.7632C102.005 11.7919 101.943 11.7919 101.875 11.7678C101.718 11.7058 101.637 11.5003 101.637 11.1419C101.637 10.7834 101.708 10.3772 101.747 10.2242L100.963 10.3008C100.929 10.5253 100.882 10.879 100.882 11.2278V11.3616C100.896 11.6245 100.915 11.9208 101.049 12.1694C101.197 12.4657 101.465 12.633 101.861 12.6759C102.071 12.6999 102.377 12.6999 102.612 12.48C102.841 12.2506 102.96 11.8634 103.037 11.5625C103.118 11.2757 103.185 11.0558 103.333 10.9841C103.395 10.9507 103.457 10.9507 103.52 10.9794C103.673 11.032 103.749 11.2278 103.749 11.5672C103.749 11.9687 103.649 12.4657 103.61 12.6425L104.413 12.5708C104.451 12.3366 104.514 11.9162 104.514 11.5003ZM101.598 7.0509H100.905V7.90637V8.82391V9.66986H101.598V8.82391H104.485V7.90637H102.865H101.598V7.0509ZM100.901 5.76052V6.67337H104.485V5.76052H102.86H100.901ZM103.797 3.66738V3.75345C103.797 4.09745 103.735 4.29346 103.615 4.39373C103.543 4.46546 103.386 4.5372 103.008 4.5372H102.463C102.062 4.5372 101.847 4.48465 101.756 4.37471C101.627 4.24559 101.598 4.06407 101.598 3.7391C101.598 3.54308 101.622 3.27549 101.675 2.91699H100.967C100.905 3.24197 100.867 3.53841 100.867 3.82502C100.867 4.50849 101.092 4.97677 101.536 5.23017C101.732 5.34962 102.057 5.43087 102.573 5.43087H102.808C103.228 5.43087 103.505 5.37832 103.692 5.30658C104.241 5.08204 104.518 4.58975 104.518 3.82987C104.518 3.62434 104.504 3.44283 104.48 3.28986C104.456 3.14171 104.442 3.01742 104.428 2.91699H103.716C103.768 3.2468 103.797 3.50005 103.797 3.66738Z" fill="#CAD0E2"/>
<path d="M99.4563 8.89547H99.2285C98.8892 7.67763 98.2758 6.51104 97.3834 5.39556C96.4862 4.2754 95.4545 3.48521 94.283 3.02531H99.4563V8.89547ZM52.7468 16.7414C52.0372 15.8107 51.1247 14.9787 50.0066 14.2504C48.8689 13.5097 47.706 13.0632 46.5172 12.922C47.4885 12.8385 48.3097 12.8434 48.9753 12.9488C49.2714 12.9783 49.5303 13.0021 49.7534 13.0102C49.9721 13.0202 50.1665 12.9942 50.3272 12.9317C50.5397 12.849 50.6809 12.7241 50.7523 12.5614C50.8235 12.3986 50.8547 12.2216 50.8411 12.0325C50.8334 11.9278 50.8189 11.8289 50.7981 11.7374L49.0573 7.26818L50.7212 2.91602H51.8351L57.5784 17.5797C57.9165 18.4303 58.3113 19.2247 58.7673 19.9623C59.2232 20.6956 59.7075 21.2923 60.2289 21.7529C60.7506 22.2089 61.2678 22.4391 61.78 22.4391V22.6599H52.4271V22.4391C52.8406 22.4391 53.1509 22.2511 53.3576 21.8751C53.5645 21.4993 53.6679 21.0104 53.6679 20.4137C53.6679 19.6006 53.4751 18.6698 53.0898 17.6217L52.7468 16.7414ZM94.9895 22.5508H86.0703V22.3325C86.6886 22.3325 87.2138 22.0861 87.646 21.5886C88.0782 21.0962 88.2922 20.4873 88.2922 19.7576V3.02531H92.7588V19.7576C92.7588 20.4873 92.9771 21.0962 93.4188 21.5886C93.8603 22.0861 94.381 22.3325 94.9895 22.3325V22.5508ZM81.8223 8.89547H81.6037V3.02531H86.7815C85.6104 3.48521 84.5782 4.2754 83.6812 5.39556C82.7891 6.51104 82.1709 7.67763 81.8223 8.89547ZM71.0498 22.6599H62.0305V22.4391C62.6462 22.4391 63.1775 22.1902 63.6144 21.6873C64.0562 21.189 64.2769 20.5732 64.2769 19.8354V5.73585C64.2769 5.00288 64.0562 4.38711 63.6144 3.89353C63.1775 3.39994 62.6462 3.15104 62.0305 3.15104V2.91602H68.7935V19.8354C68.7935 20.5732 69.0145 21.189 69.461 21.6873C69.9075 22.1902 70.4338 22.4391 71.0498 22.4391V22.6599ZM80.689 22.6599H77.728C76.9478 22.6599 76.3087 22.4957 75.8056 22.1667C75.3075 21.833 74.9035 21.4005 74.5887 20.8648C74.2784 20.3244 74.0292 19.7274 73.8369 19.0743C73.6488 18.4161 73.4842 17.7536 73.3383 17.0814C73.1271 16.0096 72.8497 15.0792 72.5112 14.2896C72.1682 13.5001 71.6183 13.0489 70.8568 12.9409C71.7732 12.8936 72.516 12.7292 73.0751 12.452C73.6342 12.17 74.0622 11.8035 74.3537 11.357C74.6498 10.9059 74.8423 10.4028 74.9409 9.84847C75.0399 9.29363 75.0868 8.72026 75.0868 8.13285C75.0868 6.70884 74.8422 5.58061 74.3537 4.74416C73.7285 3.66317 72.6006 3.05207 70.9698 2.91602H72.4548C74.0434 2.91602 75.3641 3.13219 76.4213 3.56935C77.479 4.00636 78.2687 4.6173 78.795 5.40217C79.3261 6.18704 79.589 7.0941 79.589 8.13285C79.589 9.57573 79.0674 10.7225 78.0241 11.5778C76.9857 12.4284 75.4442 12.922 73.4042 13.0489V13.1053C74.7154 13.4061 75.7261 13.909 76.4263 14.6186C77.1264 15.3284 77.6672 16.1837 78.0428 17.1942C78.2638 17.7723 78.4755 18.3692 78.6726 18.9848C78.8703 19.6006 79.0674 20.1646 79.265 20.6862C79.4623 21.203 79.6738 21.6262 79.9043 21.9503C80.1345 22.2747 80.3929 22.4391 80.689 22.4391V22.6599ZM45.8614 22.6599H40.8748V22.4391C41.354 22.4391 41.8381 22.2465 42.3225 21.8564C42.8062 21.4664 43.2715 20.9493 43.7133 20.3102C44.1506 19.6757 44.5406 18.9708 44.8838 18.1999C44.6536 18.9614 44.5406 19.652 44.5406 20.2774C44.5406 20.9117 44.6536 21.4287 44.8742 21.833C45.0999 22.2371 45.4289 22.4391 45.8614 22.4391V22.6599ZM40.6472 22.6599H31.6284V22.4391C32.2533 22.4391 32.789 21.9599 33.2261 21.0011C33.668 20.0423 33.889 18.9002 33.889 17.5797V2.91602H40.6472V3.15104C40.0316 3.15104 39.5101 3.61626 39.0728 4.55152C38.6357 5.48679 38.4102 6.63339 38.3912 7.98261V17.5938C38.4102 18.9426 38.6357 20.0893 39.0728 21.0293C39.5101 21.9692 40.0316 22.4391 40.6472 22.4391V22.6599ZM27.2243 22.6599H26.1106L19.211 4.8852C19.0185 4.37292 18.7271 3.95478 18.337 3.63029C17.9467 3.3108 17.4862 3.15104 16.9647 3.15104V2.91602H23.1495L28.8743 17.6876L27.2243 22.6599ZM21.7021 22.6599H16.9647V22.4391C17.5895 22.4391 18.1395 21.9599 18.6189 21.0011C19.0937 20.0423 19.3335 18.9002 19.3335 17.5797C19.3335 18.8908 19.5732 20.0331 20.057 20.9964C20.5414 21.9599 21.0864 22.4391 21.7021 22.4391V22.6599ZM10.4565 22.7833C11.0939 22.5178 11.5732 22.1315 11.8944 21.6241C12.2155 21.1171 12.3783 20.5537 12.3783 19.9346C12.3783 19.2503 12.1644 18.6453 11.7316 18.11C11.2986 17.5796 10.7493 17.0909 10.084 16.6394C9.41361 16.188 8.7061 15.755 7.96153 15.3363L6.06715 14.233C5.45734 13.8887 4.86607 13.5349 4.29366 13.1672C3.72125 12.804 3.19993 12.4038 2.73939 11.9618C2.27853 11.5196 1.91084 11.0215 1.63616 10.463C1.36132 9.90457 1.22656 9.25752 1.22656 8.51746C1.22656 7.15373 1.6871 5.98087 2.60899 4.98951C3.53506 3.99798 4.82448 3.34658 6.47692 3.03934C5.84841 3.37431 5.38754 3.83985 5.08513 4.43547C4.78273 5.03142 4.63362 5.63172 4.63362 6.24153C4.63362 6.92565 4.81964 7.51223 5.19217 8.00098C5.56454 8.48957 6.04829 8.93157 6.64424 9.3228C7.24018 9.7137 7.89174 10.0953 8.60358 10.4676L9.19018 10.7981C9.71601 11.0866 10.2512 11.366 10.7959 11.6407C11.4616 11.9618 12.104 12.2969 12.723 12.6506C13.3421 13.0042 13.8959 13.4045 14.3891 13.8515C14.8872 14.2936 15.283 14.8196 15.5762 15.4199C15.8739 16.0204 16.023 16.7279 16.023 17.5471C16.023 18.4174 15.8273 19.2226 15.4411 19.9579C15.055 20.6978 14.4497 21.3123 13.6258 21.8011C12.8021 22.2898 11.7453 22.6203 10.4565 22.7833ZM7.07737 22.7133C5.92288 22.448 4.94086 22.1315 4.13069 21.7592C3.79137 21.6147 3.49331 21.4938 3.23733 21.4057C2.97652 21.317 2.76229 21.2704 2.59045 21.2704C2.36219 21.2704 2.1852 21.3357 2.05947 21.4613C1.92938 21.587 1.83621 21.7408 1.78511 21.9221C1.72901 22.1036 1.70128 22.2803 1.70128 22.4434H1.41742V16.7975H1.70128C2.05028 17.9705 2.72988 19.1155 3.74946 20.2326C4.76838 21.3497 5.87629 22.1781 7.07737 22.7133ZM14.7521 8.98284H14.4683C14.1472 7.83802 13.5934 6.71157 12.8021 5.60834C12.0106 4.50543 11.0892 3.66752 10.0326 3.10446C10.9683 3.37882 11.7316 3.68155 12.3134 4.02135C12.5789 4.15627 12.8115 4.27282 13.0164 4.36115C13.2164 4.44965 13.4073 4.49608 13.5793 4.49608C13.8072 4.49608 13.9844 4.43096 14.1099 4.30522C14.2355 4.17949 14.3287 4.02587 14.3846 3.84436C14.4405 3.66286 14.4683 3.4907 14.4683 3.33724H14.7521V8.98284Z" fill="#CAD0E2"/>
<rect width="105.346" height="0.853002" fill="#CAD0E2"/>
<rect y="24.7373" width="105.346" height="0.853002" fill="#CAD0E2"/>
</svg>
