<svg width="12" height="12" viewBox="0 0 12 12" fill="none" xmlns="http://www.w3.org/2000/svg">
<path fill-rule="evenodd" clip-rule="evenodd" d="M6.19098 2.96108C4.62106 2.87843 3.39595 3.97198 3.12579 5.68357C2.90207 7.10098 3.29872 8.8281 3.638 8.91503C3.78191 8.9519 4.1282 8.68601 4.38015 8.44751C4.42751 8.40268 4.49914 8.39513 4.55468 8.42923C4.94743 8.67031 5.39209 8.85148 5.8823 8.87728C7.49401 8.96213 8.92229 7.69588 9.00671 6.07784C9.09113 4.45979 7.80269 3.04592 6.19098 2.96108ZM3.56203 11.1781C3.50125 11.1349 3.4175 11.1467 3.36656 11.2012C2.68568 11.9302 0.94313 12.4416 0.863309 11.4466C0.863309 10.667 0.688885 10.0101 0.496841 9.2868C0.261636 8.40097 0 7.41558 0 5.98344C0 2.56833 2.79009 0 6.09819 0C9.4063 0 12 2.69372 12 6.0166C12 9.33948 9.32374 11.9669 6.1295 11.9669C4.99625 11.9669 4.44633 11.8066 3.56203 11.1781Z" fill="white"/>
</svg>
