<svg width="12" height="7" viewBox="0 0 12 7" fill="none" xmlns="http://www.w3.org/2000/svg">
<path fill-rule="evenodd" clip-rule="evenodd" d="M11.725 0.474C11.808 0.201 11.725 0 11.3275 0H10.015C9.681 0 9.527 0.1735 9.4435 0.365C9.4435 0.365 8.776 1.963 7.8305 3.001C7.5245 3.302 7.3855 3.3975 7.2185 3.3975C7.135 3.3975 7.0095 3.302 7.0095 3.0285V0.474C7.0095 0.146 6.9175 0 6.6395 0H4.5755C4.367 0 4.2415 0.152 4.2415 0.2965C4.2415 0.607 4.7145 0.679 4.763 1.553V3.452C4.763 3.8685 4.6865 3.944 4.5195 3.944C4.0745 3.944 2.992 2.3385 2.3495 0.5015C2.225 0.144 2.099 0 1.7635 0H0.45C0.075 0 0 0.1735 0 0.365C0 0.706 0.445 2.4 2.0725 4.6405C3.1575 6.1705 4.685 7 6.0765 7C6.911 7 7.014 6.816 7.014 6.4985V5.342C7.014 4.9735 7.093 4.9 7.3575 4.9C7.5525 4.9 7.886 4.996 8.665 5.7335C9.555 6.608 9.7015 7 10.2025 7H11.515C11.89 7 12.078 6.816 11.97 6.452C11.851 6.09 11.426 5.5645 10.8625 4.941C10.5565 4.586 10.0975 4.2035 9.958 4.012C9.7635 3.7665 9.819 3.657 9.958 3.4385C9.958 3.4385 11.558 1.2255 11.7245 0.474H11.725Z" fill="white"/>
</svg>
