<svg width="32" height="32" viewBox="0 0 32 32" fill="none" xmlns="http://www.w3.org/2000/svg">
<circle cx="16" cy="16" r="15.5" stroke="#0B0D20"/>
<path fill-rule="evenodd" clip-rule="evenodd" d="M16.2228 12.4546C14.3912 12.3582 12.9619 13.634 12.6468 15.6308C12.3857 17.2845 12.8485 19.2994 13.2443 19.4009C13.4122 19.4439 13.8162 19.1337 14.1102 18.8554C14.1654 18.8031 14.249 18.7943 14.3138 18.8341C14.772 19.1154 15.2908 19.3267 15.8627 19.3568C17.743 19.4558 19.4093 17.9785 19.5078 16.0908C19.6063 14.2031 18.1031 12.5536 16.2228 12.4546ZM13.1557 22.0412C13.0848 21.9908 12.9871 22.0044 12.9277 22.0681C12.1333 22.9186 10.1003 23.5152 10.0072 22.3543C10.0072 21.4448 9.8037 20.6784 9.57965 19.8346C9.30524 18.8011 9 17.6515 9 15.9807C9 11.9964 12.2551 9 16.1146 9C19.974 9 23 12.1427 23 16.0194C23 19.8961 19.8777 22.9614 16.1511 22.9614C14.829 22.9614 14.1874 22.7744 13.1557 22.0412Z" fill="#0B0D20"/>
</svg>
