<svg width="32" height="32" viewBox="0 0 32 32" fill="none" xmlns="http://www.w3.org/2000/svg">
<circle cx="16" cy="16" r="15.5" stroke="currentColor"/>
<g clip-path="url(#clip0_7202_2912)">
<path fill-rule="evenodd" clip-rule="evenodd" d="M20.1831 10.9533C20.3479 10.884 20.5282 10.8601 20.7053 10.8841C20.8824 10.9081 21.0499 10.9791 21.1903 11.0898C21.3306 11.2004 21.4387 11.3467 21.5034 11.5134C21.568 11.68 21.5868 11.8609 21.5578 12.0373L20.0458 21.2086C19.8991 22.0933 18.9285 22.6006 18.1171 22.16C17.4385 21.7913 16.4305 21.2233 15.5238 20.6306C15.0705 20.334 13.6818 19.384 13.8525 18.708C13.9991 18.13 16.3325 15.958 17.6658 14.6666C18.1891 14.1593 17.9505 13.8666 17.3325 14.3333C15.7978 15.492 13.3338 17.254 12.5191 17.75C11.8005 18.1873 11.4258 18.262 10.9778 18.1873C10.1605 18.0513 9.40247 17.8406 8.7838 17.584C7.9478 17.2373 7.98847 16.088 8.78313 15.7533L20.1831 10.9533Z" fill="currentColor"/>
</g>
<defs>
<clipPath id="clip0_7202_2912">
<rect width="16" height="16" fill="white" transform="translate(7 8)"/>
</clipPath>
</defs>
</svg>
