<svg width="32" height="32" viewBox="0 0 32 32" fill="none" xmlns="http://www.w3.org/2000/svg">
<circle cx="16" cy="16" r="15.5" stroke="#0B0D20"/>
<g clip-path="url(#clip0_7202_2922)">
<path fill-rule="evenodd" clip-rule="evenodd" d="M23.6333 11.965C23.744 11.601 23.6333 11.333 23.1033 11.333H21.3533C20.908 11.333 20.7027 11.5643 20.5913 11.8197C20.5913 11.8197 19.7013 13.9503 18.4407 15.3343C18.0327 15.7357 17.8473 15.863 17.6247 15.863C17.5133 15.863 17.346 15.7357 17.346 15.371V11.965C17.346 11.5277 17.2233 11.333 16.8527 11.333H14.1007C13.8227 11.333 13.6553 11.5357 13.6553 11.7283C13.6553 12.1423 14.286 12.2383 14.3507 13.4037V15.9357C14.3507 16.491 14.2487 16.5917 14.026 16.5917C13.4327 16.5917 11.9893 14.451 11.1327 12.0017C10.9667 11.525 10.7987 11.333 10.3513 11.333H8.6C8.1 11.333 8 11.5643 8 11.8197C8 12.2743 8.59333 14.533 10.7633 17.5203C12.21 19.5603 14.2467 20.6663 16.102 20.6663C17.2147 20.6663 17.352 20.421 17.352 19.9977V18.4557C17.352 17.9643 17.4573 17.8663 17.81 17.8663C18.07 17.8663 18.5147 17.9943 19.5533 18.9777C20.74 20.1437 20.9353 20.6663 21.6033 20.6663H23.3533C23.8533 20.6663 24.104 20.421 23.96 19.9357C23.8013 19.453 23.2347 18.7523 22.4833 17.921C22.0753 17.4477 21.4633 16.9377 21.2773 16.6823C21.018 16.355 21.092 16.209 21.2773 15.9177C21.2773 15.9177 23.4107 12.967 23.6327 11.965H23.6333Z" fill="#0B0D20"/>
</g>
<defs>
<clipPath id="clip0_7202_2922">
<rect width="16" height="16" fill="white" transform="translate(8 8)"/>
</clipPath>
</defs>
</svg>
