<svg width="68" height="28" viewBox="0 0 68 28" fill="none" xmlns="http://www.w3.org/2000/svg">
<path fill-rule="evenodd" clip-rule="evenodd" d="M14.9609 6.02031C15.8917 5.83568 16.8437 5.83568 17.8169 6.02031C17.8001 6.10525 17.7548 6.15191 17.6809 6.16031C16.7998 6.02161 15.8931 5.97495 14.9609 6.02031Z" fill="#282828"/>
<path fill-rule="evenodd" clip-rule="evenodd" d="M32.0938 6.02031C33.0245 5.83568 33.9765 5.83568 34.9498 6.02031C34.9329 6.10525 34.8876 6.15191 34.8138 6.16031C33.978 6.02168 33.1167 5.97502 32.2298 6.02031C32.1845 6.02031 32.139 6.02031 32.0938 6.02031Z" fill="#282828"/>
<path fill-rule="evenodd" clip-rule="evenodd" d="M42.1599 6.01986C40.6848 5.97397 39.2341 6.02064 37.8079 6.15986C37.734 6.15146 37.6887 6.1048 37.6719 6.01986C39.1896 5.83453 40.6856 5.83453 42.1599 6.01986Z" fill="#282828"/>
<path fill-rule="evenodd" clip-rule="evenodd" d="M24.8866 6.01953C24.8866 7.32619 24.8866 8.63287 24.8866 9.93953C24.4838 11.1391 24.0304 12.3058 23.5266 13.4395C23.5715 11.175 23.5261 8.93498 23.3906 6.71953C23.4638 6.49312 23.5091 6.25979 23.5266 6.01953C23.9799 6.01953 24.4333 6.01953 24.8866 6.01953Z" fill="#282828"/>
<path fill-rule="evenodd" clip-rule="evenodd" d="M24.8867 6.02054C25.451 5.9393 25.9497 6.03264 26.3827 6.30054C26.4276 8.61173 26.3822 10.8984 26.2467 13.1605C25.8945 12.2366 25.5545 11.3033 25.2267 10.3605C25.1754 10.1586 25.0622 10.0186 24.8867 9.94054C24.8867 8.63388 24.8867 7.3272 24.8867 6.02054Z" fill="#282828"/>
<path fill-rule="evenodd" clip-rule="evenodd" d="M32.2316 6.01966C33.1186 5.97437 33.9799 6.02103 34.8156 6.15966C33.9996 8.39966 33.1836 10.6397 32.3676 12.8797C32.2321 10.6175 32.1867 8.33085 32.2316 6.01966Z" fill="#282828"/>
<path fill-rule="evenodd" clip-rule="evenodd" d="M42.1606 6.01999C44.8214 6.12134 46.0681 7.52134 45.9006 10.22C45.5549 11.7662 44.6256 12.6528 43.1126 12.88C43.6016 14.4365 44.1456 15.9765 44.7446 17.5C43.8413 17.663 42.9347 17.6863 42.0246 17.57C41.2668 15.4862 40.4961 13.4095 39.7126 11.34C40.4379 11.2467 41.1633 11.1533 41.8886 11.06C42.3204 11.0124 42.615 10.7791 42.7726 10.36C42.8633 9.89333 42.8633 9.42666 42.7726 8.95999C42.6075 8.74316 42.4035 8.57982 42.1606 8.46999C40.9819 8.42333 39.8033 8.37666 38.6246 8.32999C38.3329 7.61296 38.0609 6.88962 37.8086 6.15999C39.2348 6.02078 40.6855 5.9741 42.1606 6.01999Z" fill="#282828"/>
<path fill-rule="evenodd" clip-rule="evenodd" d="M46.6484 15.2598C48.3894 15.0274 50.1574 14.8874 51.9524 14.8398C54.0735 14.4439 54.9575 13.1373 54.6044 10.9198C54.251 9.76263 53.503 9.03931 52.3604 8.74983C51.0457 8.70317 49.7311 8.65649 48.4164 8.60983C48.0313 7.72386 47.714 6.81386 47.4644 5.87983C49.0517 5.85652 50.6384 5.87985 52.2244 5.94983C55.534 6.34656 57.3473 8.23656 57.6644 11.6198C57.4644 15.1625 55.651 17.1459 52.2244 17.5698C50.6384 17.6398 49.0517 17.6632 47.4644 17.6398C47.2977 16.7977 47.0257 16.0044 46.6484 15.2598Z" fill="#282828"/>
<path fill-rule="evenodd" clip-rule="evenodd" d="M32.0944 6.01953C32.1397 6.01953 32.1851 6.01953 32.2304 6.01953C32.1855 8.33072 32.2309 10.6174 32.3664 12.8795C31.8863 14.0819 31.433 15.2952 31.0064 16.5195C30.9157 14.3262 30.8251 12.1329 30.7344 9.93953C31.1609 8.62223 31.6143 7.31557 32.0944 6.01953Z" fill="#282828"/>
<path fill-rule="evenodd" clip-rule="evenodd" d="M14.9613 6.0197C15.8934 5.97434 16.8001 6.021 17.6813 6.1597C16.7932 8.52888 15.9319 10.9089 15.0973 13.2997C15.0234 13.3081 14.9781 13.3548 14.9613 13.4397C15.6618 13.5331 16.3418 13.6264 17.0013 13.7197C16.8148 14.3188 16.5881 14.9021 16.3213 15.4697C15.6427 15.5396 14.9627 15.5629 14.2812 15.5397C14.2812 13.0664 14.2812 10.593 14.2812 8.1197C14.481 7.40937 14.7077 6.70937 14.9613 6.0197Z" fill="#282828"/>
<path fill-rule="evenodd" clip-rule="evenodd" d="M14.2821 8.12012C14.2821 10.5935 14.2821 13.0668 14.2821 15.5401C13.9921 16.2072 13.7201 16.884 13.4661 17.5701C12.556 17.6865 11.6494 17.6631 10.7461 17.5001C11.8945 14.3455 13.0732 11.2188 14.2821 8.12012Z" fill="#282828"/>
<path fill-rule="evenodd" clip-rule="evenodd" d="M26.3821 6.2998C27.1846 8.21647 27.9099 10.1765 28.5581 12.1798C28.5581 13.9531 28.5581 15.7264 28.5581 17.4998C28.3314 17.4998 28.1048 17.4998 27.8781 17.4998C27.302 16.0781 26.758 14.6315 26.2461 13.1598C26.3815 10.8977 26.427 8.61099 26.3821 6.2998Z" fill="#282828"/>
<path fill-rule="evenodd" clip-rule="evenodd" d="M23.3925 6.71973C23.528 8.93517 23.5734 11.1752 23.5285 13.4397C23.0483 14.8294 22.595 16.2294 22.1685 17.6397C21.1911 17.6852 20.2391 17.6385 19.3125 17.4997C19.5845 17.4997 19.8565 17.4997 20.1285 17.4997C20.7632 17.4997 21.3978 17.4997 22.0325 17.4997C22.0774 15.2352 22.032 12.9952 21.8965 10.7797C22.3631 9.40158 22.8618 8.04824 23.3925 6.71973Z" fill="#282828"/>
<path fill-rule="evenodd" clip-rule="evenodd" d="M36.0399 10.3594C36.0399 12.4127 36.0399 14.466 36.0399 16.5194C35.8933 16.2339 35.7573 15.9305 35.6319 15.6094C34.5863 15.5857 33.5436 15.5157 32.5039 15.3994C32.7573 14.8037 32.984 14.1971 33.1839 13.5794C33.7664 13.4405 34.3557 13.3938 34.9519 13.4394C35.2368 12.3717 35.5995 11.3451 36.0399 10.3594Z" fill="#282828"/>
<path fill-rule="evenodd" clip-rule="evenodd" d="M20.2644 12.7398C20.1291 14.3014 20.0838 15.8881 20.1284 17.4998C19.8564 17.4998 19.5844 17.4998 19.3124 17.4998C18.7612 16.1246 18.2625 14.7246 17.8164 13.2998C18.1801 12.1066 18.6108 10.94 19.1084 9.7998C19.5864 10.7392 19.9719 11.7192 20.2644 12.7398Z" fill="#282828"/>
<path fill-rule="evenodd" clip-rule="evenodd" d="M41.8862 11.0601C41.1609 11.1534 40.4355 11.2468 39.7102 11.3401C39.6364 11.3317 39.5911 11.285 39.5742 11.2001C40.3396 11.0608 41.1102 11.0141 41.8862 11.0601Z" fill="#282828"/>
<path fill-rule="evenodd" clip-rule="evenodd" d="M36.0391 16.5198C36.0391 14.4664 36.0391 12.4131 36.0391 10.3598C36.0675 10.1608 36.1355 9.9741 36.2431 9.7998C37.2901 12.3742 38.2194 14.9875 39.0311 17.6398C38.1244 17.6398 37.2178 17.6398 36.3111 17.6398C36.2481 17.2589 36.1575 16.8855 36.0391 16.5198Z" fill="#282828"/>
<path fill-rule="evenodd" clip-rule="evenodd" d="M30.7349 9.93945C30.8256 12.1328 30.9162 14.3261 31.0069 16.5195C30.8846 16.8734 30.7486 17.2234 30.5989 17.5695C29.6679 17.6844 28.7611 17.661 27.8789 17.4995C28.1056 17.4995 28.3322 17.4995 28.5589 17.4995C28.5589 15.7261 28.5589 13.9528 28.5589 12.1795C28.8091 12.6681 29.0359 13.1814 29.2389 13.7195C29.7142 12.4356 30.2129 11.1756 30.7349 9.93945Z" fill="#282828"/>
<path fill-rule="evenodd" clip-rule="evenodd" d="M21.8979 10.7803C22.0333 12.9957 22.0788 15.2358 22.0339 17.5003C21.3992 17.5003 20.7646 17.5003 20.1299 17.5003C20.0853 15.8886 20.1306 14.3018 20.2659 12.7403C20.4117 13.0738 20.5702 13.4005 20.7419 13.7203C21.1175 12.7207 21.5028 11.7407 21.8979 10.7803Z" fill="#282828"/>
<path fill-rule="evenodd" clip-rule="evenodd" d="M15.0969 13.2998C15.7564 13.3931 16.4364 13.4865 17.1369 13.5798C17.1201 13.6647 17.0748 13.7114 17.0009 13.7198C16.3415 13.6265 15.6615 13.5332 14.9609 13.4398C14.9778 13.3549 15.0231 13.3082 15.0969 13.2998Z" fill="#282828"/>
<path fill-rule="evenodd" clip-rule="evenodd" d="M51.954 14.8398C50.1589 14.8874 48.3909 15.0274 46.65 15.2598C46.527 15.1606 46.4817 15.0206 46.514 14.8398C48.3272 14.8398 50.1407 14.8398 51.954 14.8398Z" fill="#282828"/>
<path fill-rule="evenodd" clip-rule="evenodd" d="M12.1036 19.88C11.7863 19.88 11.469 19.88 11.1516 19.88C11.1516 20.5334 11.1516 21.1866 11.1516 21.84C11.2876 21.84 11.4236 21.84 11.5596 21.84C11.5208 21.5897 11.5662 21.3563 11.6956 21.14C11.7781 21.1574 11.8235 21.204 11.8316 21.28C11.7023 21.4787 11.6569 21.7119 11.6956 21.98C11.469 21.98 11.2423 21.98 11.0156 21.98C11.0156 21.2334 11.0156 20.4866 11.0156 19.74C11.408 19.6972 11.7707 19.7438 12.1036 19.88Z" fill="#282828"/>
<path fill-rule="evenodd" clip-rule="evenodd" d="M12.1043 19.8798C12.2398 19.8677 12.3531 19.9145 12.4443 20.0198C12.5727 20.4184 12.5047 20.7684 12.2403 21.0698C12.3954 21.346 12.5767 21.6028 12.7843 21.8398C12.2587 22.0517 11.9414 21.865 11.8323 21.2798C11.8242 21.2038 11.7789 21.1571 11.6963 21.1398C11.5669 21.3561 11.5216 21.5895 11.5603 21.8398C11.4243 21.8398 11.2883 21.8398 11.1523 21.8398C11.1523 21.1864 11.1523 20.5332 11.1523 19.8798C11.4697 19.8798 11.787 19.8798 12.1043 19.8798Z" fill="#282828"/>
<path fill-rule="evenodd" clip-rule="evenodd" d="M19.5859 21.4202C19.5859 20.9069 19.5859 20.3936 19.5859 19.8802C19.7219 19.8802 19.8579 19.8802 19.9939 19.8802C19.9511 20.4222 19.9964 20.9356 20.1299 21.4202C20.2659 21.4202 20.4019 21.4202 20.5379 21.4202C20.5379 20.8602 20.5379 20.3002 20.5379 19.7402C20.7192 19.7402 20.9006 19.7402 21.0819 19.7402C21.1196 20.4029 21.0742 21.0562 20.9459 21.7002C20.624 21.9655 20.2613 22.0355 19.8579 21.9102C19.678 21.796 19.5874 21.6326 19.5859 21.4202Z" fill="#282828"/>
<path fill-rule="evenodd" clip-rule="evenodd" d="M28.8309 19.7397C29.0545 19.7097 29.2585 19.7565 29.4429 19.8797C29.6717 21.1495 29.8304 21.1028 29.9189 19.7397C30.1199 19.703 30.3012 19.7496 30.4629 19.8797C30.2415 20.5631 30.1055 21.2631 30.0549 21.9797C29.8282 21.9797 29.6016 21.9797 29.3749 21.9797C29.2389 20.673 29.1029 20.673 28.9669 21.9797C28.7402 21.9797 28.5136 21.9797 28.2869 21.9797C28.1682 21.2749 28.0322 20.5749 27.8789 19.8797C28.0602 19.8797 28.2416 19.8797 28.4229 19.8797C28.5964 21.1422 28.7324 21.0954 28.8309 19.7397Z" fill="#282828"/>
<path fill-rule="evenodd" clip-rule="evenodd" d="M37.6722 19.7402C37.8958 19.7103 38.0998 19.757 38.2842 19.8802C38.5852 20.5528 38.7892 21.2528 38.8962 21.9802C38.7149 21.9802 38.5335 21.9802 38.3522 21.9802C38.3522 21.8402 38.3522 21.7002 38.3522 21.5602C38.0802 21.5602 37.8082 21.5602 37.5362 21.5602C37.5362 21.7002 37.5362 21.8402 37.5362 21.9802C37.3549 21.9802 37.1735 21.9802 36.9922 21.9802C37.1644 21.2151 37.3911 20.4684 37.6722 19.7402Z" fill="#282828"/>
<path fill-rule="evenodd" clip-rule="evenodd" d="M46.6505 19.88C46.3332 19.88 46.0158 19.88 45.6985 19.88C45.6985 20.5334 45.6985 21.1866 45.6985 21.84C45.8345 21.84 45.9705 21.84 46.1065 21.84C46.0677 21.5897 46.113 21.3563 46.2425 21.14C46.3251 21.1574 46.3703 21.204 46.3785 21.28C46.2492 21.4787 46.2039 21.7119 46.2425 21.98C46.0158 21.98 45.7892 21.98 45.5625 21.98C45.5625 21.2334 45.5625 20.4866 45.5625 19.74C45.9549 19.6972 46.3176 19.7438 46.6505 19.88Z" fill="#282828"/>
<path fill-rule="evenodd" clip-rule="evenodd" d="M46.6473 19.8799C47.3132 20.1767 47.3585 20.5733 46.7833 21.0699C46.9813 21.3142 47.1626 21.5708 47.3273 21.8399C46.8263 22.0296 46.509 21.8428 46.3753 21.2799C46.3672 21.2039 46.3219 21.1572 46.2393 21.1399C46.1098 21.3562 46.0646 21.5896 46.1033 21.8399C45.9673 21.8399 45.8313 21.8399 45.6953 21.8399C45.6953 21.1865 45.6953 20.5333 45.6953 19.8799C46.0126 19.8799 46.33 19.8799 46.6473 19.8799Z" fill="#282828"/>
<path fill-rule="evenodd" clip-rule="evenodd" d="M55.0802 19.88C54.7629 19.88 54.4455 19.88 54.1282 19.88C54.1282 20.5334 54.1282 21.1866 54.1282 21.84C54.4909 21.84 54.8535 21.84 55.2162 21.84C54.8372 21.9768 54.4292 22.0234 53.9922 21.98C53.9922 21.2334 53.9922 20.4866 53.9922 19.74C54.3845 19.6972 54.7473 19.7438 55.0802 19.88Z" fill="#282828"/>
<path fill-rule="evenodd" clip-rule="evenodd" d="M55.0809 19.8799C55.7851 20.0687 56.0345 20.5354 55.8289 21.2799C55.6862 21.5436 55.4822 21.7304 55.2169 21.8399C54.8542 21.8399 54.4916 21.8399 54.1289 21.8399C54.1289 21.1865 54.1289 20.5333 54.1289 19.8799C54.4462 19.8799 54.7636 19.8799 55.0809 19.8799Z" fill="#282828"/>
<path fill-rule="evenodd" clip-rule="evenodd" d="M20.1293 21.4202C19.9958 20.9356 19.9505 20.4222 19.9933 19.8802C19.8573 19.8802 19.7213 19.8802 19.5853 19.8802C19.5853 20.3936 19.5853 20.9069 19.5853 21.4202C19.4517 20.8885 19.4062 20.3285 19.4493 19.7402C19.6761 19.7402 19.9026 19.7402 20.1293 19.7402C20.1293 20.3002 20.1293 20.8602 20.1293 21.4202Z" fill="#282828"/>
<path fill-rule="evenodd" clip-rule="evenodd" d="M11.6964 20.2998C11.9635 20.3625 12.0089 20.5025 11.8324 20.7198C11.7119 20.6043 11.6666 20.4643 11.6964 20.2998Z" fill="#282828"/>
<path fill-rule="evenodd" clip-rule="evenodd" d="M54.5352 20.2998C55.3495 20.3228 55.5308 20.6728 55.0792 21.3498C54.9033 21.4184 54.7219 21.4418 54.5352 21.4198C54.5352 21.0464 54.5352 20.6732 54.5352 20.2998Z" fill="#282828"/>
<path fill-rule="evenodd" clip-rule="evenodd" d="M37.8086 20.5801C37.9563 20.5969 38.047 20.6903 38.0806 20.8601C38.0354 20.9535 37.9899 21.0467 37.9446 21.1401C37.8183 20.9736 37.773 20.787 37.8086 20.5801Z" fill="#282828"/>
</svg>
