<svg width="174" height="32" viewBox="0 0 174 32" fill="none" xmlns="http://www.w3.org/2000/svg">
<path d="M170.119 20.7645V24.7258H161.692L161.665 24.618C160.121 24.618 158.766 24.3575 157.599 23.8365C156.45 23.3155 155.553 22.579 154.907 21.6268C154.278 20.6747 153.964 19.5609 153.964 18.2853C153.964 16.9739 154.278 15.8421 154.907 14.89C155.553 13.9199 156.45 13.1653 157.599 12.6264C158.766 12.0695 160.121 11.791 161.665 11.791H173.997V32.0016H168.396V13.2731L170.9 15.7792H162.473C161.557 15.7792 160.839 16.0038 160.319 16.4529C159.816 16.8841 159.565 17.4949 159.565 18.2853C159.565 19.0578 159.816 19.6686 160.319 20.1178C160.839 20.5489 161.557 20.7645 162.473 20.7645H170.119ZM166.781 22.543L159.888 32.0016H153.426L160.534 22.543H166.781Z" fill="white"/>
<path d="M127.711 32.0016V11.791H133.207V29.0643L131.672 28.714L143.123 11.791H150.425V32.0016H144.901V14.4049L146.464 14.7552L134.797 32.0016H127.711Z" fill="white"/>
<path d="M116.893 11.791C118.599 11.791 120.07 12.0785 121.304 12.6533C122.557 13.2282 123.51 14.0456 124.163 15.1055C124.817 16.1475 125.143 17.3691 125.143 18.7704C125.143 20.1537 124.817 21.3753 124.163 22.4352C123.51 23.4772 122.557 24.2856 121.304 24.8605C120.07 25.4354 118.599 25.7228 116.893 25.7228H108.044V21.2496H116.539C117.447 21.2496 118.155 21.034 118.663 20.6028C119.171 20.1537 119.425 19.5429 119.425 18.7704C119.425 17.9799 119.171 17.3691 118.663 16.938C118.155 16.4888 117.447 16.2643 116.539 16.2643H108.534L111.066 13.6773V32.0016H105.43V11.791H116.893Z" fill="white"/>
<path d="M101.104 19.8752V23.9173H86.2518V19.8752H101.104ZM88.7408 21.8963V30.0075L86.4683 27.4744H101.997V32.0016H83.1406V21.8963V11.791H101.862V16.3182H86.4683L88.7408 13.7851V21.8963Z" fill="white"/>
<path d="M64.2178 19.471H73.1184C74.8215 19.471 76.2197 19.7315 77.3133 20.2525C78.4068 20.7735 79.2224 21.51 79.7602 22.4622C80.298 23.3964 80.5669 24.4922 80.5669 25.7498C80.5669 27.0073 80.2712 28.1122 79.6796 29.0643C79.088 29.9985 78.2365 30.7261 77.125 31.247C76.0136 31.7501 74.678 32.0016 73.1184 32.0016H59.9961V21.519V11.791H79.0073V16.0218H63.4649L65.3359 13.4618V21.4112V30.4925L63.3573 27.9325H72.3924C73.1991 27.9325 73.8355 27.7259 74.3016 27.3127C74.7856 26.8995 75.0276 26.3336 75.0276 25.615C75.0276 24.8785 74.7856 24.3126 74.3016 23.9173C73.8355 23.5042 73.1991 23.2976 72.3924 23.2976H64.2178V19.471Z" fill="white"/>
<path d="M33.8555 32.0016V11.791H39.352V29.0643L37.8162 28.714L49.2673 11.791H56.5691V32.0016H51.0456V14.4049L52.6084 14.7552L40.9417 32.0016H33.8555Z" fill="white"/>
<path d="M24.7969 20.2744L32.1406 32.002H25.6348L21.1582 24.6445L15.0322 32.002H9.85547V22.3545H15.5586V24.5059L25.8008 11.791H31.8633L24.7969 20.2744Z" fill="white"/>
<path d="M8.28439 3.75842L4.94141 6.28516L8.82778 10.0574L8.97119 8.00107L11.0324 8.39111L8.28439 3.75842Z" fill="white"/>
<path d="M10.3308 9.81733L22.3652 12.8601L19.2887 16.4346L14.1559 14.6966L14.6737 20.3947L10.3708 20.4119L10.3308 9.81733Z" fill="#294CFF"/>
<path d="M3.1955 12.1378L4.78889 16.1308L9.2261 14.5094L9.13074 10.467L3.1955 12.1378Z" fill="white"/>
<path d="M14.5154 3.58096L18.0389 6.11515L15.3073 9.91221L11.3518 8.78733L14.5154 3.58096Z" fill="white"/>
</svg>
